<svg width="48" height="48" viewBox="0 0 48 48" fill="none" xmlns="http://www.w3.org/2000/svg">
<rect x="2.09815e-06" y="48" width="48" height="48" rx="24" transform="rotate(-90 2.09815e-06 48)" fill="#0B0B0B"/>
<g clip-path="url(#clip0_550_2327)">
<path d="M30.5147 24.2432C30.4788 24.2791 30.4363 24.3075 30.3894 24.327C30.3426 24.3464 30.2924 24.3564 30.2417 24.3564C30.191 24.3564 30.1408 24.3464 30.0939 24.327C30.0471 24.3075 30.0045 24.2791 29.9687 24.2432L23.6822 17.9567L23.6822 30.09C23.6822 30.1923 23.6415 30.2904 23.5691 30.3628C23.4968 30.4352 23.3986 30.4758 23.2963 30.4758C23.194 30.4758 23.0958 30.4352 23.0235 30.3628C22.9511 30.2904 22.9104 30.1923 22.9104 30.09L22.9104 17.9567L16.6239 24.2432C16.5881 24.2791 16.5455 24.3075 16.4987 24.3269C16.4518 24.3463 16.4016 24.3563 16.3509 24.3563C16.3002 24.3563 16.25 24.3463 16.2032 24.3269C16.1563 24.3075 16.1138 24.2791 16.0779 24.2432C16.0421 24.2074 16.0136 24.1648 15.9942 24.118C15.9748 24.0711 15.9648 24.0209 15.9648 23.9702C15.9648 23.9195 15.9748 23.8693 15.9942 23.8225C16.0136 23.7756 16.0421 23.7331 16.0779 23.6972L23.0233 16.7518C23.0591 16.716 23.1017 16.6875 23.1485 16.6681C23.1954 16.6487 23.2456 16.6387 23.2963 16.6387C23.347 16.6387 23.3972 16.6487 23.4441 16.6681C23.4909 16.6875 23.5335 16.716 23.5693 16.7518L30.5147 23.6972C30.5505 23.7331 30.579 23.7756 30.5984 23.8225C30.6178 23.8693 30.6278 23.9195 30.6278 23.9702C30.6278 24.0209 30.6178 24.0711 30.5984 24.118C30.579 24.1648 30.5506 24.2074 30.5147 24.2432Z" fill="#FCFCFC"/>
</g>
<defs>
<clipPath id="clip0_550_2327">
<rect width="13.5" height="13.5" fill="white" transform="translate(13.9063 24) rotate(-45)"/>
</clipPath>
</defs>
</svg>
