<svg width="18" height="18" viewBox="0 0 18 18" fill="none" xmlns="http://www.w3.org/2000/svg">
<g clip-path="url(#clip0_3002_2384)">
<path d="M15.4309 15.8873C15.3633 15.8874 15.2963 15.8741 15.2339 15.8482C15.1714 15.8224 15.1146 15.7845 15.0668 15.7366C15.019 15.6888 14.9811 15.6321 14.9552 15.5696C14.9294 15.5071 14.9161 15.4402 14.9161 15.3726L14.9161 3.51857L3.47677 14.9579C3.38029 15.0544 3.24943 15.1086 3.11298 15.1086C2.97654 15.1086 2.84568 15.0544 2.7492 14.9579C2.65271 14.8615 2.59851 14.7306 2.59851 14.5941C2.59851 14.4577 2.65271 14.3268 2.7492 14.2304L14.1886 2.79099L2.33456 2.79099C2.26696 2.79099 2.20002 2.77768 2.13757 2.75181C2.07512 2.72594 2.01837 2.68802 1.97057 2.64022C1.92277 2.59242 1.88485 2.53568 1.85898 2.47322C1.83311 2.41077 1.8198 2.34383 1.8198 2.27623C1.8198 2.20863 1.83311 2.1417 1.85898 2.07924C1.88485 2.01679 1.92277 1.96004 1.97057 1.91224C2.01837 1.86444 2.07511 1.82653 2.13757 1.80066C2.20002 1.77479 2.26696 1.76147 2.33456 1.76147L15.4309 1.76147C15.4985 1.76144 15.5655 1.77473 15.6279 1.80058C15.6904 1.82644 15.7472 1.86435 15.795 1.91216C15.8428 1.95997 15.8807 2.01673 15.9066 2.0792C15.9324 2.14167 15.9457 2.20862 15.9457 2.27623L15.9457 15.3726C15.9457 15.4402 15.9324 15.5071 15.9066 15.5696C15.8807 15.6321 15.8428 15.6888 15.795 15.7366C15.7472 15.7845 15.6904 15.8224 15.6279 15.8482C15.5655 15.8741 15.4985 15.8874 15.4309 15.8873Z" fill="white"/>
</g>
<defs>
<clipPath id="clip0_3002_2384">
<rect width="18" height="18" fill="white"/>
</clipPath>
</defs>
</svg>
