<svg width="48" height="48" viewBox="0 0 48 48" fill="none" xmlns="http://www.w3.org/2000/svg">
<g opacity="0.94">
<rect x="48" y="2.09815e-06" width="48" height="48" rx="24" transform="rotate(90 48 2.09815e-06)" fill="#0B0B0B"/>
<g clip-path="url(#clip0_550_2310)">
<path d="M17.4853 23.7568C17.5212 23.7209 17.5637 23.6925 17.6106 23.673C17.6574 23.6536 17.7076 23.6436 17.7583 23.6436C17.809 23.6436 17.8592 23.6536 17.9061 23.673C17.9529 23.6925 17.9955 23.7209 18.0313 23.7568L24.3179 30.0433L24.3179 17.91C24.3179 17.8077 24.3585 17.7096 24.4309 17.6372C24.5032 17.5648 24.6014 17.5242 24.7037 17.5242C24.806 17.5242 24.9042 17.5648 24.9765 17.6372C25.0489 17.7096 25.0896 17.8077 25.0896 17.91L25.0896 30.0433L31.3761 23.7568C31.4119 23.7209 31.4545 23.6925 31.5013 23.6731C31.5482 23.6537 31.5984 23.6437 31.6491 23.6437C31.6998 23.6437 31.75 23.6537 31.7968 23.6731C31.8437 23.6925 31.8862 23.7209 31.9221 23.7568C31.9579 23.7926 31.9864 23.8352 32.0058 23.882C32.0252 23.9289 32.0352 23.9791 32.0352 24.0298C32.0352 24.0805 32.0252 24.1307 32.0058 24.1775C31.9864 24.2244 31.9579 24.2669 31.9221 24.3028L24.9767 31.2482C24.9409 31.284 24.8983 31.3125 24.8515 31.3319C24.8046 31.3513 24.7544 31.3613 24.7037 31.3613C24.653 31.3613 24.6028 31.3513 24.5559 31.3319C24.5091 31.3125 24.4665 31.284 24.4307 31.2482L17.4853 24.3028C17.4495 24.2669 17.421 24.2244 17.4016 24.1775C17.3822 24.1307 17.3722 24.0805 17.3722 24.0298C17.3722 23.9791 17.3822 23.9289 17.4016 23.882C17.421 23.8352 17.4495 23.7926 17.4853 23.7568Z" fill="#FCFCFC"/>
</g>
</g>
<defs>
<clipPath id="clip0_550_2310">
<rect width="13.5" height="13.5" fill="white" transform="translate(34.0938 24) rotate(135)"/>
</clipPath>
</defs>
</svg>
