<svg width="1879" height="204" viewBox="0 0 1879 204" fill="none" xmlns="http://www.w3.org/2000/svg">
<path d="M94.3144 147.396C94.3144 141.418 92.0621 136.56 87.5575 132.824C83.2406 129.088 77.7038 125.725 70.9469 122.736C64.3778 119.56 57.1517 116.385 49.2687 113.209C41.5734 109.846 34.3473 105.83 27.5905 101.159C21.0213 96.3022 15.4844 90.3242 10.9799 83.2253C6.663 76.1264 4.50457 67.0659 4.50457 56.044C4.50457 46.5165 6.09993 38.2967 9.29067 31.3846C12.4814 24.2857 16.986 18.4011 22.8044 13.7308C28.8105 9.06044 35.8488 5.6044 43.9195 3.36264C51.9902 1.12088 60.9993 0 70.9469 0C82.396 0 93.1882 1.02748 103.323 3.08243C113.459 4.95056 121.811 7.75275 128.38 11.489L116.274 43.7143C112.145 41.0989 105.951 38.7637 97.6928 36.7088C89.4344 34.467 80.5191 33.3462 70.9469 33.3462C61.9378 33.3462 54.9932 35.1209 50.1133 38.6703C45.421 42.2198 43.0749 46.9835 43.0749 52.9615C43.0749 58.5659 45.2334 63.2363 49.5502 66.9725C54.0548 70.7088 59.5917 74.1648 66.1608 77.3407C72.9177 80.5165 80.1437 83.7857 87.839 87.1483C95.722 90.511 102.948 94.6209 109.517 99.478C116.274 104.148 121.811 110.033 126.128 117.132C130.632 124.044 132.885 132.731 132.885 143.192C132.885 153.654 131.102 162.714 127.536 170.374C124.157 177.846 119.277 184.104 112.896 189.148C106.702 194.192 99.1004 197.929 90.0913 200.357C81.2699 202.786 71.51 204 60.8116 204C46.7349 204 34.3473 202.692 23.649 200.077C12.9506 197.462 5.06764 194.846 0 192.231L12.3876 159.445C14.4521 160.566 17.0798 161.78 20.2705 163.088C23.649 164.396 27.4028 165.61 31.532 166.731C35.6611 167.852 39.978 168.786 44.4826 169.533C49.1748 170.28 53.9609 170.654 58.8409 170.654C70.29 170.654 79.0176 168.786 85.0237 165.049C91.2175 161.126 94.3144 155.242 94.3144 147.396Z" fill="white"/>
<path d="M155.766 3.92308H272.603V38.1099H194.336V83.7857H265.565V117.973H194.336V165.89H274.011V200.077H155.766V3.92308Z" fill="white"/>
<path d="M300.042 5.88462C304.359 5.13737 308.957 4.48352 313.837 3.92308C318.905 3.17582 323.879 2.61538 328.759 2.24176C333.826 1.86814 338.706 1.58792 343.398 1.4011C348.091 1.21429 352.408 1.12088 356.349 1.12088C365.546 1.12088 374.555 1.96154 383.376 3.64286C392.386 5.32418 400.362 8.21979 407.307 12.3297C414.439 16.4396 420.07 22.1374 424.199 29.4231C428.516 36.522 430.674 45.489 430.674 56.3242C430.674 72.3901 426.921 85.467 419.413 95.5549C411.905 105.643 401.864 112.648 389.289 116.571L403.084 125.258L448.13 200.077H403.647L358.883 123.297L338.612 119.654V200.077H300.042V5.88462ZM359.164 35.3077C355.223 35.3077 351.281 35.4011 347.34 35.5879C343.586 35.7747 340.677 36.1484 338.612 36.7088V93.5934H354.941C365.64 93.5934 374.18 91.1648 380.561 86.3077C386.943 81.4506 390.133 73.4176 390.133 62.2088C390.133 53.8022 387.506 47.2637 382.25 42.5934C376.995 37.7363 369.3 35.3077 359.164 35.3077Z" fill="white"/>
<path d="M526.779 97.7967H600.26V185.225C592.377 191.764 582.898 196.527 571.825 199.516C560.939 202.505 550.146 204 539.448 204C526.873 204 515.142 202.038 504.256 198.115C493.558 194.192 484.267 188.121 476.384 179.901C468.501 171.495 462.307 160.846 457.803 147.956C453.298 135.066 451.046 119.747 451.046 102C451.046 83.5055 453.674 67.8132 458.929 54.9231C464.372 41.8462 471.41 31.2912 480.044 23.2582C488.866 15.0385 498.719 9.15386 509.605 5.60441C520.491 1.86814 531.565 0 542.827 0C554.088 0 563.942 0.84066 572.388 2.52198C581.022 4.2033 587.872 5.97802 592.94 7.84615L585.057 40.0714C580.365 38.2033 575.109 36.8022 569.291 35.8681C563.473 34.7473 556.059 34.1868 547.05 34.1868C538.979 34.1868 531.565 35.4011 524.808 37.8297C518.051 40.2582 512.139 44.2747 507.072 49.8791C502.192 55.2967 498.344 62.3022 495.529 70.8956C492.901 79.489 491.587 89.9506 491.587 102.28C491.587 114.049 492.901 124.231 495.529 132.824C498.156 141.231 501.816 148.236 506.509 153.841C511.201 159.258 516.644 163.275 522.838 165.89C529.219 168.505 535.976 169.813 543.108 169.813C547.988 169.813 552.774 169.253 557.466 168.132C562.159 166.824 566.1 164.956 569.291 162.527V125.538L526.779 121.055V97.7967Z" fill="white"/>
<path d="M629.927 3.92308H668.497V200.077H629.927V3.92308Z" fill="white"/>
<path d="M697.258 102C697.258 69.3077 704.484 44.1813 718.936 26.6209C733.388 8.87363 754.034 0 780.874 0C794.95 0 807.244 2.42857 817.755 7.28572C828.265 12.1429 836.993 19.0549 843.937 28.022C850.882 36.989 856.043 47.7308 859.422 60.2473C862.8 72.7637 864.489 86.6813 864.489 102C864.489 134.692 857.17 159.912 842.53 177.659C828.078 195.22 807.526 204 780.874 204C766.609 204 754.221 201.571 743.711 196.714C733.2 191.857 724.473 184.945 717.528 175.978C710.771 167.011 705.704 156.269 702.325 143.753C698.947 131.236 697.258 117.319 697.258 102ZM737.799 102C737.799 111.901 738.643 121.055 740.332 129.462C742.022 137.681 744.555 144.78 747.934 150.758C751.5 156.736 756.005 161.407 761.448 164.769C766.891 168.132 773.366 169.813 780.874 169.813C794.575 169.813 805.179 164.489 812.687 153.841C820.195 143.192 823.948 125.912 823.948 102C823.948 92.4725 823.104 83.5989 821.415 75.3791C819.913 67.1593 817.473 59.967 814.095 53.8022C810.716 47.6374 806.306 42.8736 800.863 39.511C795.42 35.9615 788.757 34.1868 780.874 34.1868C767.172 34.1868 756.568 39.6978 749.06 50.7198C741.552 61.5549 737.799 78.6484 737.799 102Z" fill="white"/>
<path d="M954.062 3.92308C958.003 3.36264 962.414 2.89561 967.294 2.52198C972.362 2.14836 977.523 1.86814 982.778 1.68133C988.034 1.49451 993.101 1.4011 997.981 1.4011C1003.05 1.21429 1007.55 1.12088 1011.49 1.12088C1028.95 1.12088 1043.87 3.54945 1056.26 8.4066C1068.65 13.2637 1078.69 20.0824 1086.38 28.8626C1094.08 37.6429 1099.71 48.1044 1103.28 60.2473C1106.84 72.3901 1108.62 85.7473 1108.62 100.319C1108.62 113.582 1106.94 126.379 1103.56 138.709C1100.18 151.038 1094.55 161.967 1086.66 171.495C1078.78 181.022 1068.37 188.681 1055.41 194.473C1042.65 200.264 1026.79 203.159 1007.84 203.159C1004.83 203.159 1000.8 203.066 995.729 202.879C990.849 202.692 985.688 202.412 980.245 202.038C974.989 201.852 969.922 201.571 965.042 201.198C960.162 201.011 956.502 200.731 954.062 200.357V3.92308ZM1014.59 35.3077C1010.46 35.3077 1006.24 35.4011 1001.92 35.5879C997.794 35.7747 994.697 36.0549 992.632 36.4286V167.852C993.383 168.038 994.603 168.225 996.292 168.412C998.169 168.412 1000.14 168.505 1002.2 168.692C1004.27 168.692 1006.24 168.786 1008.12 168.973C1009.99 168.973 1011.4 168.973 1012.34 168.973C1023.23 168.973 1032.23 167.104 1039.37 163.368C1046.69 159.445 1052.41 154.308 1056.54 147.956C1060.86 141.604 1063.86 134.319 1065.55 126.099C1067.24 117.692 1068.08 109.099 1068.08 100.319C1068.08 92.6593 1067.33 85 1065.83 77.3407C1064.33 69.4945 1061.51 62.489 1057.39 56.3242C1053.44 50.1593 1048 45.1154 1041.06 41.1923C1034.11 37.2692 1025.29 35.3077 1014.59 35.3077Z" fill="white"/>
<path d="M1222.69 156.643H1162.16L1147.23 200.077H1108.66L1179.61 2.52198H1208.05L1278.99 200.077H1238.45L1222.69 156.643ZM1172.01 125.819H1214.24L1199.6 82.1044L1193.69 51.2802H1192.28L1186.37 82.3846L1172.01 125.819Z" fill="white"/>
<path d="M1417.92 200.077H1293.2V3.92308H1331.77V165.89H1417.92V200.077Z" fill="white"/>
<path d="M1559.72 200.077H1435V3.92308H1473.57V165.89H1559.72V200.077Z" fill="white"/>
<path d="M1580.75 3.92308H1619.32V200.077H1580.75V3.92308Z" fill="white"/>
<path d="M1703.26 97.7967L1687.77 66.9725H1686.37L1690.87 97.7967V200.077H1654.27V2.52198H1682.42L1757.03 107.044L1771.95 137.027H1773.36L1768.86 107.044V3.92308H1805.46V201.478H1777.3L1703.26 97.7967Z" fill="white"/>
<path d="M1840.43 3.92308H1879V200.077H1840.43V3.92308Z" fill="white"/>
</svg>
