<svg width="6" height="4" viewBox="0 0 6 4" fill="none" xmlns="http://www.w3.org/2000/svg">
<path fill-rule="evenodd" clip-rule="evenodd" d="M5.80775 0.19923C5.87136 0.259862 5.92106 0.331158 5.95399 0.409045C5.98692 0.486932 6.00245 0.569884 5.99969 0.653163C5.99692 0.736442 5.97592 0.818416 5.93788 0.894402C5.89984 0.970389 5.8455 1.0389 5.77798 1.09602L2.55126 3.82737C2.41642 3.94148 2.23706 4.00343 2.05184 3.99985C1.86663 3.99628 1.69039 3.92746 1.56114 3.80824L0.200143 2.55235C0.0695085 2.4318 -0.00246196 2.26957 6.433e-05 2.10135C0.00259062 1.93313 0.0794067 1.77271 0.213614 1.65537C0.347821 1.53802 0.528426 1.47337 0.715698 1.47564C0.902969 1.47791 1.08157 1.54691 1.2122 1.66747L2.08846 2.47604L4.80981 0.172687C4.9461 0.0573173 5.12782 -0.00469957 5.31501 0.00027808C5.50219 0.00525573 5.67952 0.0768203 5.80796 0.19923" fill="white"/>
</svg>
