<svg width="336" height="162" viewBox="0 0 336 162" fill="none" xmlns="http://www.w3.org/2000/svg">
<path d="M34.2569 54.1896C34.2569 51.9918 33.4388 50.206 31.8026 48.8324C30.2347 47.4588 28.2236 46.2225 25.7694 45.1236C23.3833 43.956 20.7586 42.7885 17.8954 41.6209C15.1003 40.3846 12.4756 38.908 10.0214 37.1909C7.63536 35.4052 5.62426 33.2074 3.98811 30.5975C2.42014 27.9876 1.63615 24.6566 1.63615 20.6044C1.63615 17.1016 2.21562 14.0797 3.37456 11.5385C4.5335 8.92857 6.16965 6.76511 8.28301 5.04808C10.4645 3.33104 13.021 2.06044 15.9525 1.23627C18.8839 0.412089 22.1562 0 25.7694 0C29.9279 0 33.8478 0.377748 37.5292 1.13325C41.2105 1.82006 44.2442 2.85028 46.6302 4.2239L42.2331 16.0714C40.7333 15.1099 38.4836 14.2514 35.484 13.4959C32.4844 12.6717 29.2462 12.2596 25.7694 12.2596C22.4971 12.2596 19.9747 12.9121 18.2022 14.217C16.4978 15.522 15.6457 17.2733 15.6457 19.4712C15.6457 21.5316 16.4297 23.2486 17.9976 24.6223C19.6338 25.9959 21.6449 27.2665 24.0309 28.4341C26.4852 29.6016 29.1098 30.8036 31.9049 32.0398C34.7682 33.2761 37.3928 34.7871 39.7789 36.5728C42.2331 38.2898 44.2442 40.4533 45.8122 43.0632C47.4483 45.6044 48.2664 48.7981 48.2664 52.6442C48.2664 56.4904 47.6188 59.8214 46.3235 62.6373C45.0964 65.3846 43.3239 67.6854 41.006 69.5398C38.7563 71.3942 35.9953 72.7679 32.723 73.6607C29.5189 74.5536 25.9739 75 22.088 75C16.975 75 12.4756 74.5192 8.58978 73.5577C4.70393 72.5962 1.84067 71.6346 0 70.6731L4.49941 58.6195C5.24931 59.0316 6.20373 59.478 7.36267 59.9588C8.58978 60.4395 9.95324 60.886 11.453 61.2981C12.9528 61.7102 14.5208 62.0536 16.157 62.3283C17.8613 62.603 19.5997 62.7404 21.3722 62.7404C25.5307 62.7404 28.7008 62.0536 30.8823 60.6799C33.132 59.2376 34.2569 57.0742 34.2569 54.1896Z" fill="#FCFCFC"/>
<path d="M56.5774 1.44231H99.015V14.011H70.5869V30.8036H96.4585V43.3722H70.5869V60.989H99.5263V73.5577H56.5774V1.44231Z" fill="#FCFCFC"/>
<path d="M108.981 2.67858C110.549 2.40385 112.219 2.16346 113.992 1.95742C115.833 1.68269 117.639 1.47665 119.412 1.33929C121.252 1.20193 123.025 1.0989 124.729 1.03022C126.434 0.96154 128.002 0.927199 129.433 0.927199C132.774 0.927199 136.046 1.23627 139.25 1.8544C142.522 2.47253 145.42 3.53709 147.942 5.04808C150.533 6.55907 152.578 8.65385 154.078 11.3324C155.646 13.9423 156.43 17.239 156.43 21.2225C156.43 27.1291 155.066 31.9368 152.339 35.6456C149.612 39.3544 145.965 41.9299 141.397 43.3722L146.408 46.5659L162.77 74.0728H146.613L130.353 45.8448L122.991 44.5055V74.0728H108.981V2.67858ZM130.456 13.4959C129.024 13.4959 127.592 13.5302 126.161 13.5989C124.797 13.6676 123.741 13.8049 122.991 14.011V34.9244H128.922C132.808 34.9244 135.91 34.0316 138.227 32.2459C140.545 30.4602 141.704 27.5069 141.704 23.386C141.704 20.2953 140.75 17.8915 138.841 16.1744C136.932 14.3887 134.137 13.4959 130.456 13.4959Z" fill="#FCFCFC"/>
<path d="M191.337 35.9547H218.026V68.0975C215.163 70.5014 211.72 72.2527 207.698 73.3516C203.744 74.4505 199.824 75 195.938 75C191.371 75 187.11 74.2788 183.156 72.8365C179.27 71.3942 175.896 69.1621 173.032 66.1401C170.169 63.0494 167.919 59.1346 166.283 54.3956C164.647 49.6566 163.829 44.0247 163.829 37.5C163.829 30.7005 164.783 24.9313 166.692 20.1923C168.669 15.3846 171.226 11.5041 174.362 8.55082C177.566 5.52885 181.145 3.36539 185.099 2.06044C189.053 0.686814 193.075 0 197.166 0C201.256 0 204.835 0.309066 207.903 0.927198C211.039 1.54533 213.527 2.1978 215.368 2.88461L212.504 14.7321C210.8 14.0453 208.891 13.5302 206.778 13.1868C204.665 12.7747 201.972 12.5687 198.699 12.5687C195.768 12.5687 193.075 13.0151 190.621 13.908C188.167 14.8008 186.019 16.2775 184.179 18.3379C182.406 20.3297 181.009 22.9052 179.986 26.0646C179.032 29.2239 178.554 33.0701 178.554 37.603C178.554 41.9299 179.032 45.6731 179.986 48.8324C180.94 51.9231 182.27 54.4986 183.974 56.5591C185.678 58.5508 187.655 60.0275 189.905 60.989C192.223 61.9505 194.677 62.4313 197.268 62.4313C199.04 62.4313 200.779 62.2253 202.483 61.8132C204.187 61.3324 205.619 60.6456 206.778 59.7527V46.1538L191.337 44.5055V35.9547Z" fill="#FCFCFC"/>
<path d="M228.802 1.44231H242.812V73.5577H228.802V1.44231Z" fill="#FCFCFC"/>
<path d="M253.258 37.5C253.258 25.4808 255.883 16.2431 261.132 9.78709C266.381 3.26236 273.88 0 283.629 0C288.742 0 293.207 0.892858 297.025 2.67857C300.843 4.46428 304.013 7.00549 306.535 10.3022C309.057 13.5989 310.932 17.5481 312.159 22.1497C313.386 26.7514 314 31.8681 314 37.5C314 49.5192 311.341 58.7912 306.024 65.3159C300.774 71.772 293.31 75 283.629 75C278.448 75 273.948 74.1071 270.131 72.3214C266.313 70.5357 263.143 67.9945 260.621 64.6978C258.166 61.4011 256.326 57.4519 255.099 52.8503C253.872 48.2486 253.258 43.1319 253.258 37.5ZM267.983 37.5C267.983 41.1401 268.29 44.5055 268.904 47.5961C269.517 50.6181 270.438 53.228 271.665 55.4258C272.96 57.6236 274.596 59.3407 276.573 60.5769C278.55 61.8132 280.902 62.4313 283.629 62.4313C288.606 62.4313 292.457 60.4739 295.184 56.5591C297.911 52.6442 299.275 46.2912 299.275 37.5C299.275 33.9972 298.968 30.7349 298.354 27.7129C297.809 24.6909 296.923 22.0467 295.696 19.7802C294.468 17.5137 292.866 15.7624 290.889 14.5261C288.912 13.2212 286.492 12.5687 283.629 12.5687C278.652 12.5687 274.801 14.5948 272.074 18.647C269.347 22.6305 267.983 28.9148 267.983 37.5Z" fill="#FCFCFC"/>
<path d="M0 89.0264C1.43182 88.8211 3.03407 88.65 4.80679 88.5132C6.6477 88.3763 8.5227 88.2737 10.4318 88.2053C12.3409 88.1368 14.1818 88.1026 15.9545 88.1026C17.7954 88.0342 19.4318 88 20.8636 88C27.2045 88 32.625 88.8895 37.125 90.6685C41.625 92.4475 45.2727 94.945 48.0682 98.1609C50.8636 101.377 52.9091 105.209 54.2045 109.656C55.5 114.104 56.1477 118.996 56.1477 124.333C56.1477 129.191 55.534 133.878 54.3068 138.394C53.0795 142.91 51.034 146.913 48.1704 150.402C45.3068 153.892 41.5227 156.697 36.8181 158.818C32.1818 160.939 26.4205 162 19.5341 162C18.4432 162 16.9773 161.966 15.1364 161.897C13.3636 161.829 11.4886 161.726 9.51136 161.589C7.60227 161.521 5.76137 161.418 3.98864 161.282C2.21591 161.213 0.886363 161.11 0 160.974V89.0264ZM21.9886 100.522C20.4886 100.522 18.9545 100.556 17.3863 100.624C15.8863 100.693 14.7614 100.795 14.0114 100.932V149.068C14.2841 149.136 14.7272 149.205 15.3409 149.273C16.0227 149.273 16.7386 149.307 17.4886 149.376C18.2386 149.376 18.9545 149.41 19.6363 149.479C20.3182 149.479 20.8295 149.479 21.1705 149.479C25.125 149.479 28.3977 148.794 30.9886 147.426C33.6477 145.989 35.7272 144.107 37.2272 141.781C38.7954 139.454 39.8863 136.786 40.5 133.775C41.1136 130.696 41.4205 127.549 41.4205 124.333C41.4205 121.528 41.1477 118.722 40.6022 115.917C40.0568 113.043 39.0341 110.477 37.5341 108.219C36.1023 105.961 34.125 104.114 31.6022 102.677C29.0795 101.24 25.875 100.522 21.9886 100.522Z" fill="#FCFCFC"/>
<path d="M97.5825 145.27H75.5939L70.1734 161.179H56.1621L81.9348 88.8211H92.2643L118.037 161.179H103.31L97.5825 145.27ZM79.1734 133.981H94.5143L89.1961 117.969L87.0484 106.68H86.5371L84.3893 118.072L79.1734 133.981Z" fill="#FCFCFC"/>
<path d="M168.505 160.922H123.199V89.0777H137.21V148.401H168.505V160.922Z" fill="#FCFCFC"/>
<path d="M220.017 160.922H174.71V89.0777H188.722V148.401H220.017V160.922Z" fill="#FCFCFC"/>
<path d="M227.654 89.0777H241.666V160.922H227.654V89.0777Z" fill="#FCFCFC"/>
<path d="M272.159 123.46L266.534 112.171H266.022L267.659 123.46V160.922H254.363V88.5645H264.59L291.693 126.847L297.113 137.829H297.625L295.988 126.847V89.0777H309.284V161.436H299.056L272.159 123.46Z" fill="#FCFCFC"/>
<path d="M321.989 89.0777H336V160.922H321.989V89.0777Z" fill="#FCFCFC"/>
</svg>
