<svg width="15" height="18" viewBox="0 0 15 18" fill="none" xmlns="http://www.w3.org/2000/svg">
<path opacity="0.1" d="M0 9.45763H2.19588V0.381356C2.97938 0.228813 3.81443 0.127118 4.70103 0.0762702C5.60825 0.0254234 6.50515 0 7.39175 0C8.34021 0 9.26804 0.0762707 10.1753 0.228812C11.1031 0.381355 11.9175 0.661016 12.6186 1.0678C13.3402 1.47458 13.9175 2.02542 14.3505 2.72034C14.7835 3.41525 15 4.30508 15 5.38983C15 6.45763 14.7732 7.34746 14.3196 8.05932C13.8866 8.77119 13.299 9.34746 12.5567 9.78814C11.8351 10.2288 11 10.5424 10.0515 10.7288C9.12371 10.9153 8.17526 11.0169 7.20619 11.0339L4.76289 11.0593V12.8644H9.89691V14.4407H4.76289V18H2.19588V14.4407H0V12.8644H2.19588V11.0339H0V9.45763ZM7.45361 1.77966C6.91753 1.77966 6.40206 1.79661 5.90722 1.83051C5.43299 1.84746 5.05155 1.88135 4.76289 1.9322V9.30508H7.1134C7.73196 9.30508 8.35052 9.25424 8.96907 9.15254C9.58763 9.05085 10.1443 8.85593 10.6392 8.5678C11.134 8.27966 11.5361 7.88983 11.8454 7.3983C12.1546 6.88983 12.299 6.22881 12.2783 5.41525C12.299 4.72034 12.1753 4.14407 11.9072 3.68644C11.6598 3.21186 11.3093 2.83898 10.8557 2.5678C10.4227 2.27966 9.90722 2.07627 9.30928 1.95763C8.73196 1.83898 8.1134 1.77966 7.45361 1.77966Z" fill="#0B0B0B"/>
</svg>
