<svg width="24" height="24" viewBox="0 0 24 24" fill="none" xmlns="http://www.w3.org/2000/svg">
<g opacity="0.1">
<path d="M8 13.9748C7.79333 13.9748 7.61333 13.8991 7.46 13.7477C7.30667 13.5963 7.23 13.4185 7.23 13.2145C7.23 13.0104 7.30667 12.833 7.46 12.6823C7.61333 12.5315 7.79333 12.4558 8 12.4552C8.20667 12.4545 8.38667 12.5302 8.54 12.6823C8.69333 12.8343 8.77 13.0121 8.77 13.2155C8.77 13.4189 8.69333 13.5963 8.54 13.7477C8.38667 13.8991 8.20667 13.9748 8 13.9748ZM12 13.9748C11.7933 13.9748 11.6133 13.8991 11.46 13.7477C11.3067 13.5963 11.23 13.4185 11.23 13.2145C11.23 13.0104 11.3067 12.833 11.46 12.6823C11.6133 12.5315 11.7933 12.4558 12 12.4552C12.2067 12.4545 12.3867 12.5302 12.54 12.6823C12.6933 12.8343 12.77 13.0121 12.77 13.2155C12.77 13.4189 12.6933 13.5963 12.54 13.7477C12.3867 13.8991 12.2067 13.9748 12 13.9748ZM16 13.9748C15.7933 13.9748 15.6133 13.8991 15.46 13.7477C15.3067 13.5963 15.23 13.4185 15.23 13.2145C15.23 13.0104 15.3067 12.833 15.46 12.6823C15.6133 12.5315 15.7933 12.4558 16 12.4552C16.2067 12.4545 16.3867 12.5302 16.54 12.6823C16.6933 12.8343 16.77 13.0121 16.77 13.2155C16.77 13.4189 16.6933 13.5963 16.54 13.7477C16.3867 13.8991 16.2067 13.9748 16 13.9748ZM4 21V5.20187H7.385V3H8.462V5.20187H15.616V3H16.616V5.20187H20V21H4ZM5 20.0126H19V10.747H5V20.0126ZM5 9.75864H19V6.18925H5V9.75864Z" fill="#0B0B0B"/>
</g>
</svg>
