<svg width="248" height="40" viewBox="0 0 248 40" fill="none" xmlns="http://www.w3.org/2000/svg">
<path d="M10.9605 0.889136L11.9521 3.50131L11.7955 3.55356C11.7955 3.55356 11.5346 3.2401 11.0127 2.71766C10.4908 2.14298 9.86454 1.72504 9.18608 1.46382C8.50762 1.2026 7.72478 0.993629 6.83756 0.993629C5.37626 0.993629 4.2281 1.41157 3.34088 2.19522C2.45367 2.97888 2.03615 4.02376 2.03615 5.17311C2.03615 5.95677 2.24491 6.58368 2.66242 7.15836C3.07994 7.73304 3.91497 8.25548 5.16751 8.77792C7.35946 9.50933 8.87294 10.0318 9.65578 10.3975C10.4908 10.7632 11.2215 11.3901 12.0043 12.226C12.7349 13.1141 13.1525 14.2112 13.1525 15.5696C13.1525 16.1443 13.1003 16.6667 12.9437 17.1891C12.7871 17.7116 12.5784 18.1818 12.2652 18.6519C11.9521 19.1221 11.5868 19.5401 11.1693 19.958C10.7518 20.376 10.3342 20.6372 9.86454 20.8462C9.39484 21.0552 8.71638 21.2119 7.77697 21.3164C6.83756 21.4209 6.21129 21.4731 5.89815 21.4731H0.261719V15.4128H0.470474C0.470474 17.4503 0.992366 18.8087 1.93177 19.6446C2.87118 20.4805 4.38467 20.8462 6.36786 20.8462C8.19448 20.8462 9.5514 20.4282 10.543 19.5923C11.4824 18.7564 11.9521 17.7638 11.9521 16.5622C11.9521 15.8308 11.7955 15.2561 11.4824 14.7337C11.1693 14.2112 10.6996 13.7933 10.1255 13.3753C9.5514 12.9574 8.40324 12.5395 6.78537 11.9648C5.16751 11.3901 4.01934 10.9199 3.34088 10.5019C2.66242 10.084 2.14053 9.45707 1.67083 8.62118C1.20112 7.78528 0.992367 6.89714 0.992367 6.009C0.992367 4.38945 1.56645 3.03112 2.71461 1.93401C3.86277 0.836892 5.32407 0.314453 7.20288 0.314453C7.93353 0.314453 8.71637 0.41894 9.5514 0.575671C10.3864 0.732402 10.8561 0.836892 10.9605 0.889136Z" fill="#0B0B0B"/>
<path d="M16.5991 0.83739V0.576172H30.0639V3.44957H29.8029C29.4898 2.4047 29.281 1.72553 29.0723 1.5688C28.8635 1.35982 28.3938 1.30758 27.611 1.30758H20.5654V10.7114H27.1413C27.7676 10.7114 28.1851 10.6592 28.3938 10.5547C28.5504 10.4502 28.6548 10.2412 28.6548 10.0323H28.8635V12.0175H28.6548C28.6026 11.7563 28.4982 11.5473 28.2895 11.4428C28.1329 11.3384 27.7676 11.2861 27.2979 11.2861H20.5654V17.7643C20.5654 18.7569 20.6698 19.4361 20.8264 19.854C20.983 20.272 21.2961 20.5332 21.7136 20.6377C22.1311 20.7422 22.7052 20.7944 23.5402 20.7944H27.2979C28.4982 20.7944 29.281 20.7422 29.5942 20.6899C29.9073 20.5855 30.2205 20.4287 30.4292 20.2198C30.638 19.9585 30.8467 19.4361 30.9511 18.6524H31.1599V21.5258H16.5469V21.3169C17.0166 21.2646 17.4341 21.2124 17.695 21.0557C17.956 20.8989 18.0604 20.481 18.0604 19.854V2.97938C18.0604 2.19573 18.0082 1.67329 17.8516 1.35983C17.7472 0.99412 17.3297 0.83739 16.5991 0.83739Z" fill="#0B0B0B"/>
<path d="M34.3413 0.835924V0.626953H40.3952C41.9609 0.626953 43.0569 0.679203 43.7353 0.731447C44.4138 0.78369 45.1444 0.992658 45.8751 1.41061C46.6057 1.77631 47.1276 2.29874 47.4929 2.92567C47.8583 3.55259 48.067 4.33624 48.067 5.27663C48.067 6.3215 47.7539 7.36638 47.0754 8.30676C46.397 9.24715 45.5097 10.083 44.3094 10.7622L45.8229 13.0087C46.136 13.5834 47.0232 14.8372 48.4323 16.718C49.8415 18.651 50.9374 19.8003 51.7203 20.2183C52.5031 20.6362 53.2338 20.8452 53.9644 20.8452C54.6951 20.8452 55.5301 20.584 56.4173 20.0616L56.5217 20.3228C55.3735 21.2632 53.86 21.7334 51.9812 21.7334C50.7287 21.7334 49.6849 21.3676 48.7977 20.6362C47.9104 19.9048 46.3448 17.9718 44.1528 14.7327L44.1006 14.6805L41.9609 11.4414L40.0299 11.4936H38.3076V19.4869C38.3076 20.1138 38.412 20.584 38.5686 20.8452C38.7251 21.1064 39.1427 21.2632 39.8211 21.2632V21.4721H34.2891V21.2632C34.9675 21.2109 35.385 21.1064 35.5938 20.8452C35.7504 20.584 35.8547 20.0616 35.8547 19.2779V2.66445C35.8547 2.14201 35.8025 1.67182 35.646 1.30611C35.5416 0.992652 35.0719 0.835924 34.3413 0.835924ZM38.3598 1.14939V10.9712H40.604C42.3784 10.9712 43.6831 10.5532 44.5182 9.76958C45.3532 8.98592 45.8229 7.88881 45.8229 6.58272C45.8229 5.27663 45.4054 4.07503 44.5703 2.92567C43.7353 1.77631 42.274 1.20164 40.1343 1.20164H38.3598V1.14939Z" fill="#0B0B0B"/>
<path d="M75.6743 21.3164V21.5253H67.0631C65.393 21.5253 63.9317 21.3686 62.7314 21.0029C61.4788 20.6372 60.2263 20.0103 58.9216 19.0177C57.6168 18.025 56.573 16.8234 55.7902 15.3606C55.0074 13.8978 54.5898 12.435 54.5898 10.8677C54.5898 9.19586 55.1117 7.52407 56.1033 5.90452C57.0949 4.28497 58.5562 2.92663 60.3829 1.88176C62.2095 0.836889 64.3492 0.314453 66.6977 0.314453C68.7853 0.314453 71.0295 0.784648 73.378 1.67279L74.2652 4.076H74.0564C73.3258 3.13561 72.282 2.40421 70.9773 1.77728C69.6725 1.15036 68.2634 0.836889 66.6456 0.836889C63.8795 0.836889 61.6354 1.82953 59.861 3.86702C58.0865 5.90452 57.1993 8.41221 57.1993 11.4423C57.1993 12.6962 57.3559 13.7933 57.6168 14.7859C57.93 15.7786 58.4518 16.7189 59.2347 17.6593C60.0175 18.5997 60.9047 19.3311 61.792 19.7491C62.7314 20.2193 63.723 20.5327 64.8711 20.6894C66.0193 20.8462 66.9065 20.9507 67.585 20.8984L68.7331 20.8462C70.0379 20.7939 70.8207 20.6894 71.186 20.4805C71.4992 20.2715 71.6557 19.8013 71.6557 19.0177V15.8308C71.6557 15.2039 71.4992 14.7859 71.2382 14.577C70.9773 14.368 70.6119 14.2635 70.1422 14.3157V14.1067H75.6743V14.3157C75.048 14.3157 74.6305 14.4202 74.4218 14.6814C74.213 14.9426 74.1086 15.3606 74.1086 16.0398V19.3311C74.1086 20.0103 74.213 20.4805 74.3696 20.7417C74.5261 21.0551 74.8915 21.1596 75.3612 21.1596H75.6743V21.3164Z" fill="#0B0B0B"/>
<path d="M84.5455 0.576172V0.785143C84.2846 0.732899 83.9714 0.785149 83.6061 0.889636C83.2408 0.994124 83.0842 1.15085 82.9798 1.41207C82.8754 1.67329 82.8754 2.14348 82.8754 2.97938V19.0182C82.8754 19.9063 82.9276 20.4287 82.9798 20.6377C83.032 20.8467 83.1886 21.0034 83.3973 21.1079C83.6061 21.2124 83.9714 21.3169 84.4933 21.3169V21.5258H78.8047V21.3169C79.5353 21.3169 79.9529 21.1601 80.1616 20.8989C80.3182 20.6377 80.4226 20.0108 80.4226 19.0704V3.18835C80.4226 2.19572 80.3182 1.56881 80.1094 1.25535C79.9007 0.941886 79.4831 0.83739 78.8047 0.83739V0.628419H84.5455V0.576172Z" fill="#0B0B0B"/>
<path d="M100.153 0.314453C103.18 0.314453 105.633 1.2026 107.512 2.97888C109.443 4.75516 110.382 7.00163 110.382 9.66605C110.382 13.1141 109.286 15.9875 107.042 18.3385C104.85 20.6894 101.876 21.8388 98.2224 21.8388C95.2476 21.8388 92.8469 20.8984 90.9159 19.0177C89.0371 17.1369 88.0977 14.8382 88.0977 12.226C88.0977 10.4497 88.5674 8.62119 89.4546 6.74042C90.3418 4.85965 91.7509 3.34458 93.5775 2.14298C95.4563 0.889132 97.6483 0.314453 100.153 0.314453ZM100.049 20.7417C101.51 20.7417 102.972 20.376 104.433 19.5923C105.842 18.8087 106.99 17.7638 107.825 16.4055C108.66 15.0471 109.078 13.6366 109.078 12.226C109.078 10.1885 108.504 8.35997 107.408 6.68817C106.312 5.01638 104.85 3.71029 103.076 2.82215C101.302 1.93401 99.6837 1.41157 98.1702 1.41157C96.0304 1.41157 94.0994 2.19522 92.3772 3.76253C90.6549 5.32984 89.7677 7.26285 89.7677 9.56157C89.7677 12.5395 90.8115 15.0994 92.9513 17.3459C95.091 19.5923 97.4395 20.7417 100.049 20.7417Z" fill="#0B0B0B"/>
<path d="M124.473 0.835924V0.626953H134.284C136.789 0.626953 138.773 0.835931 140.234 1.20164C141.695 1.56734 142.948 2.19426 144.044 3.03016C145.14 3.86606 145.975 4.91093 146.601 6.16477C147.227 7.47086 147.54 8.88143 147.54 10.4487C147.54 11.9638 147.227 13.4789 146.549 14.9417C145.87 16.4045 144.983 17.6584 143.887 18.7555C142.739 19.8003 141.591 20.5317 140.338 20.9497C139.086 21.3676 137.155 21.5244 134.545 21.5244H124.473V21.3154H124.734C125.255 21.3154 125.621 21.1064 125.777 20.6885C125.934 20.2705 126.038 19.5391 126.038 18.442V3.23913C126.038 2.08977 125.934 1.41061 125.725 1.20164C125.516 0.940418 125.099 0.835924 124.473 0.835924ZM131.727 1.0449H128.439V17.2404C128.439 18.2853 128.596 19.0167 128.961 19.5391C129.326 20.0616 129.9 20.375 130.788 20.6362C131.623 20.8452 132.771 20.9497 134.232 20.9497C138.251 20.9497 141.069 19.9571 142.687 17.9196C144.305 15.9343 145.14 13.7401 145.14 11.3369C145.14 8.56797 144.044 6.11253 141.799 4.07503C139.555 2.03753 136.215 1.0449 131.727 1.0449Z" fill="#0B0B0B"/>
<path d="M160.694 11.8598H154.431L151.196 19.7486C150.987 20.3233 150.883 20.689 150.883 20.7934C150.883 21.1069 151.144 21.2636 151.613 21.2636V21.4726H148.43V21.2636C148.847 21.2636 149.213 21.1591 149.526 20.9502C149.839 20.7412 150.152 20.2188 150.465 19.3829L158.241 0.261719H158.607L166.226 18.7037C166.226 18.8082 166.435 19.2261 166.8 20.062C167.218 20.8457 167.792 21.2636 168.575 21.2636V21.4726H163.565V21.2636C164.034 21.2636 164.243 21.1069 164.243 20.7412C164.243 20.48 164.139 20.1143 163.93 19.5918L160.694 11.8598ZM154.588 11.2851H160.381L157.511 4.17999L154.588 11.2851Z" fill="#0B0B0B"/>
<path d="M170.715 21.5249V21.3159C171.393 21.3159 171.811 21.2114 172.02 20.9502C172.228 20.689 172.333 20.271 172.333 19.6963V2.61269C172.333 1.98577 172.281 1.56782 172.124 1.3066C171.967 1.04538 171.498 0.888659 170.715 0.888659V0.679688H176.456V0.888659C175.934 0.888659 175.568 0.940899 175.36 1.09763C175.151 1.25436 174.994 1.41109 174.942 1.56782C174.89 1.72455 174.838 2.14251 174.838 2.76943V17.4499C174.838 18.7037 175.151 19.5918 175.777 20.1143C176.403 20.6367 177.447 20.8979 178.961 20.8979H181.57C182.823 20.8979 183.762 20.5845 184.336 20.0098C184.91 19.4351 185.223 18.2858 185.328 16.614H185.537V21.6294H170.715V21.5249Z" fill="#0B0B0B"/>
<path d="M188.457 21.5249V21.3159C189.135 21.3159 189.553 21.2114 189.762 20.9502C189.971 20.689 190.075 20.271 190.075 19.6963V2.61269C190.075 1.98577 190.023 1.56782 189.866 1.3066C189.71 1.04538 189.24 0.888659 188.457 0.888659V0.679688H194.198V0.888659C193.676 0.888659 193.311 0.940899 193.102 1.09763C192.893 1.25436 192.737 1.41109 192.684 1.56782C192.632 1.72455 192.58 2.14251 192.58 2.76943V17.4499C192.58 18.7037 192.893 19.5918 193.519 20.1143C194.146 20.6367 195.189 20.8979 196.703 20.8979H199.312C200.565 20.8979 201.504 20.5845 202.078 20.0098C202.653 19.4351 202.966 18.2858 203.07 16.614H203.279V21.6294H188.457V21.5249Z" fill="#0B0B0B"/>
<path d="M212.616 0.576172V0.785143C212.355 0.732899 212.042 0.785149 211.676 0.889636C211.311 0.994124 211.155 1.15085 211.05 1.41207C210.946 1.67329 210.946 2.14348 210.946 2.97938V19.0182C210.946 19.9063 210.998 20.4287 211.05 20.6377C211.102 20.8467 211.259 21.0034 211.468 21.1079C211.676 21.2124 212.042 21.3169 212.564 21.3169V21.5258H206.875V21.3169C207.606 21.3169 208.023 21.1601 208.232 20.8989C208.388 20.6377 208.493 20.0108 208.493 19.0704V3.18835C208.493 2.19572 208.388 1.56881 208.18 1.25535C207.971 0.941886 207.553 0.83739 206.875 0.83739V0.628419H212.616V0.576172Z" fill="#0B0B0B"/>
<path d="M233.962 0.576172H238.085V0.785143C237.459 0.785143 237.041 0.94188 236.78 1.15085C236.519 1.41207 236.415 1.88226 236.415 2.66591V21.7871L219.349 4.02425V19.4883C219.349 19.9585 219.401 20.3242 219.454 20.5855C219.506 20.8467 219.662 21.0034 219.767 21.0557C219.923 21.1601 220.289 21.2124 220.863 21.3169V21.5258H216.74V21.3169C217.47 21.3169 217.94 21.2124 218.097 20.9512C218.253 20.6899 218.358 20.063 218.358 19.1226V4.96463C218.358 3.71078 218.201 2.71816 217.836 1.93451C217.47 1.15085 216.688 0.785146 215.383 0.83739V0.628419H219.401L235.476 17.2941V2.56144C235.476 1.77778 235.319 1.30758 235.058 1.09861C234.797 0.889633 234.38 0.83739 233.962 0.83739V0.576172Z" fill="#0B0B0B"/>
<path d="M247.483 0.576172V0.785143C247.222 0.732899 246.909 0.785149 246.544 0.889636C246.178 0.994124 246.022 1.15085 245.917 1.41207C245.813 1.67329 245.813 2.14348 245.813 2.97938V19.0182C245.813 19.9063 245.865 20.4287 245.917 20.6377C245.97 20.8467 246.126 21.0034 246.335 21.1079C246.544 21.2124 246.909 21.3169 247.431 21.3169V21.5258H241.742V21.3169C242.473 21.3169 242.89 21.1601 243.099 20.8989C243.256 20.6377 243.36 20.0108 243.36 19.0704V3.18835C243.36 2.19572 243.256 1.56881 243.047 1.25535C242.838 0.941886 242.421 0.83739 241.742 0.83739V0.628419H247.483V0.576172Z" fill="#0B0B0B"/>
</svg>