<svg width="166" height="90" viewBox="0 0 166 90" fill="none" xmlns="http://www.w3.org/2000/svg">
<path d="M60.862 83.8965C61.4303 83.8965 61.8769 84.0185 62.2016 84.3034C62.5264 84.5475 62.6481 84.9137 62.6481 85.3205C62.6481 85.646 62.567 85.9308 62.364 86.175C62.2016 86.3784 61.9986 86.5411 61.7551 86.5818C62.2016 86.6632 62.5264 86.826 62.7699 87.1515C63.0135 87.4363 63.1353 87.8024 63.1353 88.25C63.1353 88.7382 62.9729 89.1044 62.6481 89.3892C62.3234 89.6741 61.8363 89.8368 61.2274 89.8368H59.2383V89.7554H59.3195C59.4412 89.7554 59.6036 89.7147 59.6848 89.5927C59.766 89.4706 59.8472 89.3485 59.8472 89.2265V84.5068C59.8472 84.344 59.8066 84.222 59.6848 84.1406C59.563 84.0592 59.4412 83.9779 59.3195 83.9779H59.2383V83.8965H60.862Z" fill="white"/>
<path d="M70.7738 83.8965V83.9779H70.652C70.3273 83.9779 70.0431 84.1406 69.8401 84.4661L68.2164 87.1921V89.2265C68.2164 89.3892 68.257 89.5113 68.3788 89.5927C68.46 89.7147 68.5817 89.7554 68.7441 89.7554H68.8253V89.8368H67.0392V89.7554H67.161C67.2827 89.7554 67.4045 89.7147 67.5263 89.5927C67.6481 89.4706 67.6887 89.3485 67.6887 89.2265V87.1921L66.1055 84.4661C65.9026 84.1406 65.6184 83.9779 65.2937 83.9779H65.1719V83.8965H67.2015V83.9779H67.0798C66.958 83.9779 66.8768 84.0185 66.7956 84.1406C66.7144 84.2627 66.7144 84.3847 66.7956 84.5068L68.0134 86.9073L69.3124 84.5068C69.353 84.3847 69.353 84.2627 69.3124 84.1406C69.2312 84.0185 69.15 83.9779 69.0283 83.9779H68.9471V83.8965H70.7738Z" fill="white"/>
<path d="M78.4385 89.8773H76.6523V89.796H76.7741C76.8959 89.796 77.0583 89.7553 77.1395 89.6332C77.2206 89.5111 77.3018 89.3891 77.3018 89.267V84.5473C77.3018 84.3846 77.2612 84.2625 77.1395 84.1811C77.0177 84.0591 76.8959 84.0184 76.7741 84.0184H76.6523V83.937H78.4385V84.0184H78.3167C78.1543 84.0184 78.0325 84.0591 77.9513 84.1811C77.8701 84.3032 77.789 84.4253 77.789 84.5473V89.267C77.789 89.4298 77.8296 89.5518 77.9513 89.6332C78.0731 89.7553 78.1949 89.796 78.3167 89.796H78.4385V89.8773Z" fill="white"/>
<path d="M84.5753 83.8962C84.7377 83.8962 84.9406 83.8962 85.1436 83.8555C85.3466 83.8148 85.4684 83.7741 85.5495 83.7334V84.7913H85.4683V84.6285C85.4683 84.5065 85.4278 84.3844 85.3466 84.2623C85.2654 84.181 85.1436 84.0996 85.0218 84.0996H83.4793V89.1855C83.4793 89.3482 83.5199 89.4703 83.6416 89.5517C83.7634 89.6737 83.8852 89.7144 84.007 89.7144H84.1288V89.7958H82.3427V89.7144H82.4644C82.5862 89.7144 82.708 89.6737 82.8298 89.5517C82.9515 89.4296 82.9922 89.3075 82.9922 89.1855V84.0996H81.4496C81.3278 84.0996 81.206 84.1403 81.1248 84.2623C81.0437 84.3844 81.0031 84.4658 81.0031 84.6285V84.7913H80.9219V83.7334C81.0031 83.7741 81.1248 83.8148 81.3278 83.8555C81.5308 83.8962 81.7337 83.8962 81.8961 83.8962H84.5753Z" fill="white"/>
<path d="M92.571 89.2275C92.7333 89.5936 92.9769 89.7564 93.3017 89.7564H93.3828V89.8378H91.5561V89.7564H91.6373C91.7591 89.7564 91.8403 89.7157 91.9215 89.6343C92.0027 89.5123 92.0027 89.3902 91.9621 89.2275L91.4344 87.7627H89.2017L88.6334 89.2275C88.5928 89.3902 88.5928 89.5123 88.674 89.6343C88.7552 89.7157 88.8364 89.7564 88.9581 89.7564H89.0393V89.8378H87.375V89.7564H87.4562C87.7809 89.7564 88.0245 89.5936 88.1869 89.2275L90.0542 84.6705C90.2571 84.223 90.3383 83.9381 90.3383 83.7754H90.4195L92.571 89.2275ZM91.272 87.5186L90.2977 84.7926L89.2829 87.5186H91.272Z" fill="white"/>
<path d="M99.3931 88.494L98.906 89.8773H95.4961V89.796H95.6179C95.7397 89.796 95.902 89.7553 95.9832 89.6332C96.0644 89.5111 96.1456 89.3891 96.1456 89.267V84.5473C96.1456 84.3846 96.105 84.2625 95.9832 84.1811C95.8614 84.0591 95.7397 84.0184 95.6179 84.0184H95.4961V83.937H97.2822V84.0184H97.1604C97.0387 84.0184 96.8763 84.0591 96.7951 84.1811C96.6733 84.3032 96.6327 84.4253 96.6327 84.5473V89.6332H97.8099C98.2159 89.6332 98.5406 89.5112 98.7842 89.3077C98.9871 89.145 99.1495 88.8602 99.2713 88.494H99.3931Z" fill="white"/>
<path d="M106.856 83.8965V83.9779H106.734C106.409 83.9779 106.125 84.1406 105.922 84.4661L104.298 87.1921V89.2265C104.298 89.3892 104.339 89.5113 104.461 89.5927C104.542 89.7147 104.664 89.7554 104.826 89.7554H104.907V89.8368H103.121V89.7554H103.243C103.365 89.7554 103.487 89.7147 103.608 89.5927C103.73 89.4706 103.771 89.3485 103.771 89.2265V87.1921L102.188 84.4661C101.985 84.1406 101.7 83.9779 101.376 83.9779H101.254V83.8965H103.284V83.9779H103.162C103.04 83.9779 102.959 84.0185 102.878 84.1406C102.796 84.2627 102.796 84.3847 102.878 84.5068L104.095 86.9073L105.394 84.5068C105.435 84.3847 105.435 84.2627 105.394 84.1406C105.313 84.0185 105.232 83.9779 105.11 83.9779H105.029V83.8965H106.856Z" fill="white"/>
<path d="M122.317 22.1338C122.317 15.5018 120.247 10.1718 116.147 6.06238C112.047 2.03435 106.729 0 100.112 0H86.4728H79.1254H65.4859C58.8692 0 53.5514 2.03435 49.4515 6.06238C45.3109 10.1718 43.2812 15.5018 43.2812 22.1338C43.2812 28.7658 45.3515 34.0958 49.4515 38.2052C53.3485 42.0705 58.4227 44.1048 64.5929 44.2676C65.2018 44.3083 65.9731 44.3897 66.9473 44.2676H79.0848H86.4322H98.5291C99.8687 44.3897 101.168 44.2676 101.98 44.1862C102.183 44.1862 102.386 44.1455 102.548 44.1455C107.987 43.698 112.493 41.7043 116.066 38.1645C120.247 34.0958 122.317 28.7658 122.317 22.1338ZM78.0294 31.0036C77.7452 28.7658 76.7304 26.8535 75.472 25.3481C74.0106 23.5578 72.468 22.2559 70.8443 21.5235C69.2612 20.7504 66.2978 19.6519 61.9543 18.1465C59.4375 17.1293 57.7732 16.0307 57.0019 14.8101C56.19 13.6302 55.8247 12.2468 55.8247 10.66C55.8247 8.25949 56.6771 6.22513 58.3415 4.51627C59.2751 3.58047 60.6553 2.76672 62.1979 2.23779C63.3345 1.99367 64.4711 1.87161 65.7295 1.87161H78.0294V31.0036ZM52.8613 36.8625C49.6139 33.2007 47.9901 28.3589 47.9901 22.3372C47.9901 16.3155 49.6139 11.4738 52.8613 7.81193C53.9168 6.63201 55.094 5.57414 56.393 4.71971C54.5663 6.87613 53.6732 9.43942 53.6732 12.4503C53.6732 14.2812 54.1197 16.0714 54.9722 17.821C55.8653 19.5705 56.9613 20.8725 58.2603 21.7676C59.5593 22.622 61.8325 23.6392 65.0394 24.8191C68.2869 25.9584 70.479 26.9349 71.6562 27.7079C72.8334 28.481 73.7264 29.4168 74.3759 30.4747C75.0254 31.5325 75.3502 32.7938 75.3502 34.2992C75.3502 36.7405 74.4165 38.8562 72.5492 40.6058C71.4126 41.6636 69.9512 42.396 68.1651 42.8029C68.0433 42.8029 67.881 42.8029 67.7592 42.8029H65.6889C60.4117 42.8029 56.1088 40.5651 52.8613 36.8625ZM83.9154 39.6293C83.8748 40.6871 83.5095 41.5823 82.8194 42.396C82.1293 41.6229 81.764 40.6871 81.7234 39.6293V4.23146C81.7234 3.29566 82.0887 2.48191 82.8194 1.79023C83.5501 2.48191 83.9154 3.29566 83.9154 4.23146V39.6293ZM99.8687 1.9123C101.087 1.9123 102.264 2.03436 103.4 2.27848C104.943 2.80741 106.283 3.62116 107.257 4.55696C108.962 6.26582 109.774 8.30017 109.774 10.7007C109.774 12.2875 109.368 13.6709 108.596 14.8508C107.784 16.0307 106.161 17.1293 103.644 18.1872C99.3004 19.6926 96.3371 20.8318 94.7539 21.5642C93.1708 22.3372 91.6282 23.5985 90.1263 25.3888C88.8679 26.8942 87.853 28.8065 87.5689 31.0443V1.95298H99.8687V1.9123ZM99.8687 42.8029H97.7984C97.6767 42.8029 97.5143 42.8029 97.3925 42.8029C95.6064 42.396 94.145 41.6636 93.0084 40.6058C91.1411 38.8562 90.2074 36.7812 90.2074 34.2992C90.2074 32.7938 90.5322 31.5325 91.1817 30.4747C91.8312 29.4168 92.7242 28.5217 93.9015 27.7079C95.0787 26.8942 97.2707 25.9584 100.518 24.8191C103.725 23.6392 105.998 22.622 107.297 21.7676C108.596 20.9132 109.692 19.5705 110.585 17.821C111.478 16.0714 111.884 14.2812 111.884 12.4503C111.884 9.43942 110.991 6.87613 109.165 4.71971C110.464 5.57414 111.641 6.63201 112.696 7.81193C115.944 11.4738 117.568 16.3155 117.568 22.3372C117.568 28.3589 115.944 33.2007 112.696 36.8625C109.489 40.5651 105.227 42.8029 99.8687 42.8029Z" fill="white"/>
<path d="M165.372 55.0908V55.2536C165.169 55.2129 164.925 55.2536 164.641 55.3349C164.357 55.4163 164.235 55.5384 164.154 55.7418C164.073 55.9453 164.073 56.3114 164.073 56.9624V69.4534C164.073 70.1451 164.113 70.5519 164.154 70.7147C164.194 70.8774 164.316 70.9995 164.478 71.0809C164.641 71.1622 164.925 71.2436 165.331 71.2436V71.4064H160.906V71.2436C161.475 71.2436 161.799 71.1215 161.962 70.9181C162.083 70.7147 162.165 70.2264 162.165 69.4941V57.1252C162.165 56.3521 162.083 55.8639 161.921 55.6198C161.759 55.3756 161.434 55.2943 160.906 55.2943V55.1315H165.372V55.0908Z" fill="white"/>
<path d="M146.582 71.4056V71.2428C147.11 71.2428 147.434 71.1614 147.597 70.958C147.759 70.7546 147.84 70.4291 147.84 69.9815V56.6768C147.84 56.1886 147.8 55.8631 147.678 55.6596C147.556 55.4562 147.191 55.3341 146.582 55.3341V55.1714H151.047V55.3341C150.641 55.3341 150.357 55.3748 150.195 55.4969C150.032 55.6189 149.911 55.741 149.87 55.8631C149.83 55.9851 149.789 56.3106 149.789 56.7989V68.232C149.789 69.2084 150.032 69.9001 150.52 70.307C151.007 70.7139 151.819 70.9173 152.996 70.9173H155.025C156 70.9173 156.73 70.6732 157.177 70.2256C157.623 69.7781 157.867 68.8829 157.948 67.581H158.111V71.4869H146.582V71.4056Z" fill="white"/>
<path d="M132.777 71.4056V71.2428C133.305 71.2428 133.63 71.1614 133.792 70.958C133.955 70.7546 134.036 70.4291 134.036 69.9815V56.6768C134.036 56.1886 133.995 55.8631 133.873 55.6596C133.752 55.4562 133.386 55.3341 132.777 55.3341V55.1714H137.243V55.3341C136.837 55.3341 136.553 55.3748 136.39 55.4969C136.228 55.6189 136.106 55.741 136.065 55.8631C136.025 55.9851 135.984 56.3106 135.984 56.7989V68.232C135.984 69.2084 136.228 69.9001 136.715 70.307C137.202 70.7139 138.014 70.9173 139.191 70.9173H141.221C142.195 70.9173 142.926 70.6732 143.372 70.2256C143.819 69.7781 144.062 68.8829 144.144 67.581H144.306V71.4869H132.777V71.4056Z" fill="white"/>
<path d="M124.985 63.8792H120.114L117.597 70.023C117.434 70.4705 117.353 70.7554 117.353 70.8367C117.353 71.0809 117.556 71.2029 117.922 71.2029V71.3657H115.445V71.2029C115.77 71.2029 116.054 71.1215 116.298 70.9588C116.541 70.796 116.785 70.3892 117.028 69.7382L123.077 54.8467H123.361L129.288 69.2092C129.288 69.2906 129.45 69.6161 129.734 70.2671C130.059 70.8774 130.506 71.2029 131.114 71.2029V71.3657H127.217V71.2029C127.583 71.2029 127.745 71.0809 127.745 70.796C127.745 70.5926 127.664 70.3078 127.502 69.9009C127.461 69.8602 127.461 69.8195 127.42 69.7382C127.42 69.6568 127.38 69.6161 127.38 69.6161L124.985 63.8792ZM120.235 63.4317H124.741L122.509 57.8982L120.235 63.4317Z" fill="white"/>
<path d="M96.8125 55.2941V55.1313H104.444C106.393 55.1313 107.935 55.2941 109.072 55.5789C110.208 55.8637 111.183 56.352 112.035 57.003C112.888 57.654 113.537 58.4677 114.024 59.4442C114.511 60.4614 114.755 61.5599 114.755 62.7805C114.755 63.9605 114.511 65.1404 113.984 66.2796C113.456 67.4189 112.766 68.3954 111.913 69.2498C111.02 70.0635 110.127 70.6331 109.153 70.9586C108.179 71.2841 106.677 71.4062 104.647 71.4062H96.8125V71.2435H97.0155C97.4214 71.2435 97.7056 71.0807 97.8273 70.7552C97.9491 70.4297 98.0303 69.8601 98.0303 69.0057V57.1657C98.0303 56.2706 97.9491 55.7417 97.7867 55.5789C97.6244 55.3755 97.2996 55.2941 96.8125 55.2941ZM102.455 55.4568H99.8976V68.0699C99.8976 68.8836 100.019 69.4532 100.304 69.8601C100.588 70.267 101.034 70.5111 101.724 70.7145C102.374 70.8773 103.267 70.9586 104.404 70.9586C107.529 70.9586 109.721 70.1856 110.98 68.5988C112.238 67.0527 112.888 65.3438 112.888 63.4722C112.888 61.3158 112.035 59.4035 110.29 57.8167C108.544 56.2299 105.946 55.4568 102.455 55.4568Z" fill="white"/>
<path d="M77.8967 54.8872C80.2511 54.8872 82.159 55.5789 83.6203 56.9623C85.1223 58.3456 85.853 60.0952 85.853 62.1702C85.853 64.8556 85.0005 67.0933 83.255 68.9243C81.5501 70.7552 79.2362 71.6503 76.3947 71.6503C74.0809 71.6503 72.2136 70.9179 70.7116 69.4532C69.2502 67.9885 68.5195 66.1982 68.5195 64.1639C68.5195 62.7805 68.8849 61.3565 69.575 59.8917C70.2651 58.427 71.3611 57.2471 72.7819 56.3113C74.2432 55.3348 75.9482 54.8872 77.8967 54.8872ZM77.8155 70.7959C78.9521 70.7959 80.0887 70.5111 81.2253 69.9008C82.3214 69.2904 83.2144 68.4767 83.8639 67.4189C84.5134 66.361 84.8382 65.2624 84.8382 64.1639C84.8382 62.5771 84.3916 61.153 83.5392 59.851C82.6867 58.5491 81.5501 57.5319 80.1699 56.8402C78.7897 56.1485 77.5313 55.7416 76.3541 55.7416C74.6898 55.7416 73.1878 56.3519 71.8482 57.5726C70.5086 58.7932 69.8185 60.2986 69.8185 62.0888C69.8185 64.408 70.6304 66.4017 72.2947 68.1512C73.9591 69.9008 75.7858 70.7959 77.8155 70.7959Z" fill="white"/>
<path d="M65.7583 55.0908V55.2536C65.5553 55.2129 65.3117 55.2536 65.0276 55.3349C64.7434 55.4163 64.6216 55.5384 64.5405 55.7418C64.4593 55.9453 64.4593 56.3114 64.4593 56.9624V69.4534C64.4593 70.1451 64.4999 70.5519 64.5405 70.7147C64.5811 70.8774 64.7028 70.9995 64.8652 71.0809C65.0276 71.1622 65.3117 71.2436 65.7177 71.2436V71.4064H61.293V71.2436C61.8613 71.2436 62.186 71.1215 62.3484 70.9181C62.4702 70.7147 62.5514 70.2264 62.5514 69.4941V57.1252C62.5514 56.3521 62.4702 55.8639 62.3078 55.6198C62.1454 55.3756 61.8207 55.2943 61.293 55.2943V55.1315H65.7583V55.0908Z" fill="white"/>
<path d="M58.8529 71.2434V71.4062H52.155C50.856 71.4062 49.7194 71.2841 48.7857 70.9993C47.8115 70.7145 46.8372 70.2263 45.8224 69.4532C44.8076 68.6802 43.9957 67.7443 43.3868 66.6051C42.7779 65.4659 42.4531 64.3266 42.4531 63.106C42.4531 61.804 42.8591 60.502 43.6303 59.2407C44.4016 57.9794 45.5382 56.9216 46.959 56.1078C48.3798 55.2941 50.0441 54.8872 51.8708 54.8872C53.4946 54.8872 55.2401 55.2534 57.0668 55.9451L57.7569 57.8167H57.5945C57.0262 57.0843 56.2144 56.5147 55.1995 56.0265C54.1847 55.5382 53.0886 55.2941 51.8302 55.2941C49.6788 55.2941 47.9333 56.0671 46.5531 57.6539C45.1729 59.2407 44.4828 61.1937 44.4828 63.5536C44.4828 64.5301 44.6046 65.3845 44.8076 66.1575C45.0511 66.9306 45.457 67.663 46.066 68.3953C46.6749 69.1277 47.365 69.6973 48.055 70.0228C48.7857 70.389 49.557 70.6331 50.4501 70.7552C51.3431 70.8772 52.0332 70.9586 52.5609 70.9179L53.454 70.8773C54.4688 70.8366 55.0777 70.7552 55.3619 70.5924C55.6055 70.4297 55.7272 70.0635 55.7272 69.4532V66.9713C55.7272 66.483 55.6054 66.1575 55.4025 65.9948C55.1995 65.8321 54.9154 65.7507 54.55 65.7914V65.6286H58.8529V65.7914C58.3658 65.7914 58.0411 65.8727 57.8787 66.0762C57.7163 66.2796 57.6351 66.6051 57.6351 67.134V69.6973C57.6351 70.2263 57.7163 70.5924 57.8381 70.7959C57.9599 71.04 58.244 71.1214 58.6094 71.1214H58.8529V71.2434Z" fill="white"/>
<path d="M26.7086 55.2941V55.1313H31.4174C32.6352 55.1313 33.4877 55.172 34.0154 55.2127C34.5431 55.2534 35.1114 55.4162 35.6797 55.7417C36.2481 56.0265 36.654 56.4333 36.9381 56.9216C37.2223 57.4098 37.3847 58.0201 37.3847 58.7525C37.3847 59.5662 37.1411 60.38 36.6134 61.1124C36.0857 61.8447 35.3956 62.4957 34.4619 63.0246L35.6392 64.7742C35.8827 65.2218 36.5728 66.1982 37.6688 67.663C38.7649 69.1684 39.6173 70.0635 40.2262 70.389C40.8351 70.7145 41.4034 70.8773 41.9718 70.8773C42.5401 70.8773 43.1896 70.6738 43.8797 70.267L43.9608 70.4704C43.0678 71.2028 41.8906 71.5689 40.4292 71.5689C39.455 71.5689 38.6431 71.2841 37.953 70.7145C37.2629 70.1449 36.0451 68.6395 34.3402 66.1169L34.2996 66.0762L32.6352 63.5536L31.1333 63.5943H29.7937V69.8194C29.7937 70.3077 29.8749 70.6738 29.9966 70.8773C30.1184 71.0807 30.4432 71.2028 30.9709 71.2028V71.3655H26.668V71.2028C27.1957 71.1621 27.5204 71.0807 27.6828 70.8773C27.8046 70.6738 27.8858 70.267 27.8858 69.6567V56.7181C27.8858 56.3113 27.8452 55.9451 27.7234 55.6603C27.6422 55.4162 27.2769 55.2941 26.7086 55.2941ZM29.8343 55.5382V63.1874H31.5798C32.96 63.1874 33.9748 62.8619 34.6243 62.2516C35.2738 61.6413 35.6392 60.7869 35.6392 59.7697C35.6392 58.7525 35.3144 57.8167 34.6649 56.9216C34.0154 56.0265 32.8788 55.5789 31.2145 55.5789H29.8343V55.5382Z" fill="white"/>
<path d="M12.9039 55.2943V55.0908H23.377V57.3286H23.1741C22.9305 56.5149 22.7681 55.9859 22.6057 55.8639C22.4434 55.7011 22.078 55.6604 21.4691 55.6604H15.989V62.9841H21.1038C21.5909 62.9841 21.9157 62.9434 22.078 62.8621C22.1998 62.7807 22.281 62.6179 22.281 62.4552H22.4434V64.0013H22.281C22.2404 63.7979 22.1592 63.6351 21.9968 63.5538C21.8751 63.4724 21.5909 63.4317 21.2256 63.4317H15.989V68.4769C15.989 69.2499 16.0702 69.7789 16.192 70.1044C16.3137 70.4299 16.5573 70.6333 16.882 70.7147C17.2068 70.7961 17.6533 70.8367 18.3028 70.8367H21.2256C22.1592 70.8367 22.7681 70.7961 23.0117 70.7554C23.2552 70.674 23.4988 70.5519 23.6612 70.3892C23.8236 70.1857 23.9859 69.7789 24.0671 69.1686H24.2295V71.4064H12.8633V71.2436C13.2286 71.2029 13.5534 71.1622 13.7563 71.0402C13.9593 70.9181 14.0405 70.5926 14.0405 70.1044V56.9624C14.0405 56.3521 13.9999 55.9453 13.8781 55.7011C13.7969 55.4163 13.4722 55.2943 12.9039 55.2943Z" fill="white"/>
<path d="M8.52481 55.3348L9.29609 57.3691L9.17431 57.4098C9.17431 57.4098 8.97134 57.1657 8.56541 56.7588C8.15947 56.3113 7.67235 55.9858 7.14463 55.7823C6.61691 55.5789 6.00801 55.4161 5.31792 55.4161C4.1813 55.4161 3.28824 55.7416 2.59815 56.3519C1.90806 56.9623 1.58331 57.776 1.58331 58.6711C1.58331 59.2814 1.74568 59.7697 2.07043 60.2172C2.39518 60.6648 3.04468 61.0717 4.01892 61.4785C5.72385 62.0481 6.90107 62.455 7.50997 62.7398C8.15947 63.0246 8.72778 63.5129 9.33668 64.1639C9.90499 64.8556 10.2297 65.71 10.2297 66.7679C10.2297 67.2154 10.1891 67.6223 10.0674 68.0292C9.94559 68.436 9.78321 68.8022 9.53965 69.1684C9.29609 69.5346 9.01194 69.8601 8.68719 70.1856C8.36244 70.5111 8.03769 70.7145 7.67235 70.8773C7.307 71.04 6.77929 71.1621 6.0486 71.2434C5.31792 71.3248 4.83079 71.3655 4.58723 71.3655H0.203125V66.6458H0.365498C0.365498 68.2326 0.771434 69.2905 1.50212 69.9414C2.2328 70.5924 3.41002 70.8773 4.95257 70.8773C6.37335 70.8773 7.42878 70.5517 8.20006 69.9008C8.93075 69.2498 9.29609 68.4767 9.29609 67.5409C9.29609 66.9713 9.17431 66.5237 8.93075 66.1169C8.68719 65.71 8.32185 65.3845 7.87532 65.059C7.42879 64.7335 6.53573 64.408 5.27732 63.9604C4.01892 63.5129 3.12586 63.1467 2.59815 62.8212C2.07043 62.4957 1.66449 62.0075 1.29915 61.3565C0.933809 60.7055 0.771434 60.0138 0.771434 59.3221C0.771434 58.0608 1.21796 57.0029 2.11102 56.1485C3.00408 55.2941 4.1407 54.8872 5.60207 54.8872C6.17038 54.8872 6.77929 54.9686 7.42878 55.0906C8.07828 55.2127 8.44363 55.2941 8.52481 55.3348C8.48422 55.3348 8.44363 55.2941 8.52481 55.3348Z" fill="white"/>
</svg>
