<svg width="475" height="222" viewBox="0 0 475 222" fill="none" xmlns="http://www.w3.org/2000/svg">
<path d="M21 136.314L22.9 141.325L22.6 141.426C22.6 141.426 22.1 140.824 21.1 139.822C20.1 138.719 18.9 137.918 17.6 137.417C16.3 136.915 14.8 136.514 13.1 136.514C10.3 136.514 8.1 137.316 6.4 138.82C4.7 140.323 3.9 142.328 3.9 144.533C3.9 146.036 4.3 147.239 5.1 148.342C5.9 149.444 7.5 150.446 9.9 151.449C14.1 152.852 17 153.854 18.5 154.556C20.1 155.258 21.5 156.46 23 158.064C24.4 159.768 25.2 161.873 25.2 164.479C25.2 165.581 25.1 166.584 24.8 167.586C24.5 168.588 24.1 169.49 23.5 170.392C22.9 171.294 22.2 172.096 21.4 172.898C20.6 173.7 19.8 174.201 18.9 174.602C18 175.003 16.7 175.304 14.9 175.504C13.1 175.705 11.9 175.805 11.3 175.805H0.5V164.178H0.899998C0.899998 168.087 1.9 170.693 3.7 172.297C5.5 173.9 8.4 174.602 12.2 174.602C15.7 174.602 18.3 173.8 20.2 172.196C22 170.593 22.9 168.688 22.9 166.383C22.9 164.98 22.6 163.877 22 162.875C21.4 161.873 20.5 161.071 19.4 160.269C18.3 159.467 16.1 158.665 13 157.563C9.9 156.46 7.7 155.558 6.4 154.756C5.1 153.955 4.1 152.752 3.2 151.148C2.3 149.544 1.9 147.84 1.9 146.137C1.9 143.029 3 140.423 5.2 138.319C7.4 136.214 10.2 135.211 13.8 135.211C15.2 135.211 16.7 135.412 18.3 135.713C19.9 136.013 20.8 136.214 21 136.314Z" fill="white"/>
<path d="M11.4 176.406H0V163.777H1.4V164.278C1.4 167.987 2.3 170.593 4 171.996C5.7 173.399 8.5 174.201 12.2 174.201C15.5 174.201 18.1 173.399 19.8 171.896C21.5 170.392 22.3 168.588 22.3 166.483C22.3 165.18 22 164.078 21.4 163.276C20.8 162.374 20 161.572 18.9 160.87C17.8 160.169 15.7 159.267 12.6 158.264C9.4 157.162 7.2 156.26 5.9 155.358C4.6 154.556 3.4 153.253 2.5 151.549C1.6 149.845 1.2 148.141 1.2 146.337C1.2 143.129 2.4 140.323 4.6 138.218C7.7 135.211 12.2 134.209 18.1 135.412C20.6 135.913 20.8 136.013 20.9 136.013H21.2L23.5 141.927L22 142.227V141.826C21.8 141.626 21.5 141.225 20.6 140.423C19.6 139.421 18.5 138.619 17.2 138.118C15.9 137.617 14.5 137.316 12.9 137.316C10.2 137.316 8.1 138.018 6.6 139.521C5 141.025 4.3 142.729 4.3 144.833C4.3 146.237 4.7 147.439 5.4 148.442C6.1 149.444 7.7 150.446 10 151.348C14.2 152.752 17.1 153.754 18.7 154.455C20.3 155.157 21.9 156.46 23.4 158.164C24.9 159.868 25.7 162.173 25.7 164.879C25.7 165.982 25.6 167.085 25.3 168.087C25 169.089 24.6 170.091 24 171.094C23.4 171.996 22.7 172.898 21.8 173.7C21 174.502 20.1 175.103 19.2 175.504C18.3 175.905 17 176.205 15.1 176.406C13.2 176.306 12 176.406 11.4 176.406ZM1 175.404H11.4C12 175.404 13.1 175.303 14.9 175.103C16.6 174.903 17.9 174.602 18.7 174.301C19.5 173.9 20.3 173.399 21 172.697C21.8 171.996 22.4 171.194 23 170.292C23.5 169.39 23.9 168.488 24.2 167.586C24.4 166.684 24.6 165.681 24.6 164.579C24.6 162.073 23.9 160.068 22.6 158.465C21.2 156.861 19.8 155.658 18.3 155.057C16.8 154.355 13.9 153.353 9.7 151.95C7.1 150.947 5.5 149.845 4.6 148.642C3.8 147.439 3.4 146.036 3.4 144.533C3.4 142.227 4.3 140.123 6 138.519C7.7 136.815 10.1 136.013 13 136.013C14.7 136.013 16.3 136.314 17.7 136.915C19.1 137.517 20.3 138.318 21.4 139.421C21.5 139.621 21.7 139.722 21.8 139.822L20.6 136.715H20.5C20.4 136.715 20.1 136.614 18 136.113C12.5 135.011 8.3 135.913 5.4 138.719C3.3 140.724 2.3 143.23 2.3 146.136C2.3 147.74 2.7 149.344 3.5 150.847C4.3 152.351 5.3 153.553 6.5 154.255C7.7 155.057 9.9 155.959 13 157.061C16.2 158.164 18.4 159.066 19.5 159.768C20.7 160.57 21.6 161.472 22.3 162.474C23 163.476 23.3 164.779 23.3 166.283C23.3 168.688 22.3 170.793 20.4 172.497C18.5 174.201 15.7 175.003 12.1 175.003C8.2 175.003 5.2 174.201 3.3 172.597C2.2 171.695 1.4 170.392 0.899998 168.688V175.404H1Z" fill="white"/>
<path d="M31.7992 136.214V135.712H57.5992V141.225H57.0992C56.4992 139.22 56.0992 137.917 55.6992 137.617C55.2992 137.216 54.3992 137.116 52.8992 137.116H39.3992V155.157H51.9992C53.1992 155.157 53.9992 155.057 54.3992 154.856C54.6992 154.656 54.8992 154.255 54.8992 153.854H55.2992V157.663H54.8992C54.7992 157.162 54.5992 156.761 54.1992 156.56C53.8992 156.36 53.1992 156.26 52.2992 156.26H39.3992V168.688C39.3992 170.593 39.5992 171.896 39.8992 172.697C40.1992 173.499 40.7992 174 41.5992 174.201C42.3992 174.401 43.4992 174.502 45.0992 174.502H52.2992C54.5992 174.502 56.0992 174.401 56.6992 174.301C57.2992 174.101 57.8992 173.8 58.2992 173.399C58.6992 172.898 59.0992 171.896 59.2992 170.392H59.6992V175.905H31.6992V175.504C32.5992 175.404 33.3992 175.303 33.8992 175.003C34.3992 174.702 34.5992 173.9 34.5992 172.697V140.323C34.5992 138.82 34.4992 137.817 34.1992 137.216C33.9992 136.514 33.1992 136.214 31.7992 136.214Z" fill="white"/>
<path d="M60.3008 176.406H31.3008V175.003H31.8008C32.7008 175.003 33.3008 174.802 33.7008 174.502C34.0008 174.301 34.2008 173.6 34.2008 172.597V140.223C34.2008 138.519 34.0008 137.717 33.9008 137.316C33.7008 136.915 33.0008 136.715 31.9008 136.715H31.4008V135.211H58.2008V141.726H56.9008L56.8008 141.325C56.1008 138.719 55.7008 138.118 55.5008 137.918C55.4008 137.817 54.9008 137.517 53.0008 137.517H40.0008V154.556H52.1008C53.7008 154.556 54.1008 154.355 54.2008 154.255C54.4008 154.155 54.5008 153.955 54.5008 153.654V153.153H55.9008V157.964H54.6008L54.5008 157.563C54.4008 157.062 54.2008 156.861 54.1008 156.861C53.9008 156.761 53.5008 156.661 52.4008 156.661H40.0008V168.588C40.0008 170.392 40.2008 171.695 40.5008 172.397C40.8008 173.099 41.2008 173.499 41.9008 173.7C42.6008 173.9 43.8008 174.001 45.3008 174.001H52.5008C55.3008 174.001 56.4008 173.9 56.8008 173.8C57.4008 173.7 57.8008 173.399 58.2008 172.998C58.5008 172.698 58.8008 172.096 59.1008 170.292L59.2008 169.891H60.5008V176.406H60.3008ZM34.2008 175.404H59.3008V172.798C59.1008 173.199 58.9008 173.499 58.7008 173.8C58.2008 174.301 57.6008 174.702 56.8008 174.903C56.1008 175.103 54.6008 175.103 52.3008 175.103H45.1008C43.5008 175.103 42.3008 175.003 41.5008 174.802C40.6008 174.602 39.9008 173.9 39.5008 172.998C39.1008 172.096 38.9008 170.693 38.9008 168.789V155.859H52.3008C53.3008 155.859 54.0008 155.959 54.4008 156.16C54.5008 156.26 54.6008 156.26 54.7008 156.36V155.157C54.6008 155.157 54.6008 155.258 54.5008 155.258C54.1008 155.558 53.2008 155.658 51.9008 155.658H38.9008V136.615H52.9008C54.6008 136.615 55.6008 136.815 56.0008 137.316C56.2008 137.517 56.5008 138.018 57.0008 139.321V136.314H34.2008C34.5008 136.514 34.6008 136.715 34.7008 137.016C35.0008 137.717 35.1008 138.719 35.1008 140.323V172.698C35.1008 174.101 34.8008 175.003 34.2008 175.404Z" fill="white"/>
<path d="M65.7992 136.213V135.812H77.3992C80.3992 135.812 82.4992 135.913 83.7992 136.013C85.0992 136.113 86.4992 136.514 87.8992 137.316C89.2992 138.018 90.2992 139.02 90.9992 140.223C91.6992 141.425 92.0992 142.929 92.0992 144.733C92.0992 146.738 91.4992 148.742 90.1992 150.546C88.8992 152.351 87.1992 153.954 84.8992 155.257L87.7992 159.567C88.3992 160.67 90.0992 163.075 92.7992 166.683C95.4992 170.392 97.5992 172.597 99.0992 173.399C100.599 174.201 101.999 174.602 103.399 174.602C104.799 174.602 106.399 174.101 108.099 173.098L108.299 173.599C106.099 175.404 103.199 176.306 99.5992 176.306C97.1992 176.306 95.1992 175.604 93.4992 174.201C91.7992 172.798 88.7992 169.089 84.5992 162.875L84.4992 162.774L80.3992 156.56L76.6992 156.66H73.3992V171.996C73.3992 173.198 73.5992 174.101 73.8992 174.602C74.1992 175.103 74.9992 175.404 76.2992 175.404V175.804H65.6992V175.404C66.9992 175.303 67.7992 175.103 68.1992 174.602C68.4992 174.101 68.6992 173.098 68.6992 171.595V139.721C68.6992 138.719 68.5992 137.817 68.2992 137.115C68.0992 136.514 67.1992 136.213 65.7992 136.213ZM73.4992 136.815V155.658H77.7992C81.1992 155.658 83.6992 154.856 85.2992 153.353C86.8992 151.849 87.7992 149.745 87.7992 147.239C87.7992 144.733 86.9992 142.428 85.3992 140.223C83.7992 138.018 80.9992 136.915 76.8992 136.915H73.4992V136.815Z" fill="white"/>
<path d="M335.001 54.5253C335.001 38.1878 329.901 25.0576 319.801 14.9343C309.701 5.01151 296.601 0 280.301 0H246.701H228.601H195.001C178.701 0 165.601 5.01151 155.501 14.9343C145.301 25.0576 140.301 38.1878 140.301 54.5253C140.301 70.8629 145.401 83.9931 155.501 94.1163C165.101 103.638 177.601 108.65 192.801 109.051C194.301 109.151 196.201 109.351 198.601 109.051H228.501H246.601H276.401C279.701 109.351 282.901 109.051 284.901 108.85C285.401 108.85 285.901 108.75 286.301 108.75C299.701 107.647 310.801 102.736 319.601 94.0161C329.901 83.9931 335.001 70.8629 335.001 54.5253ZM225.901 76.3756C225.201 70.8629 222.701 66.1521 219.601 62.4435C216.001 58.0334 212.201 54.826 208.201 53.0219C204.301 51.1175 197.001 48.4113 186.301 44.7028C180.101 42.197 176.001 39.4908 174.101 36.4839C172.101 33.5772 171.201 30.1694 171.201 26.2604C171.201 20.3468 173.301 15.3353 177.401 11.1256C179.701 8.82028 183.101 6.81567 186.901 5.51267C189.701 4.91129 192.501 4.6106 195.601 4.6106H225.901V76.3756ZM163.901 90.8088C155.901 81.788 151.901 69.8606 151.901 55.0265C151.901 40.1924 155.901 28.265 163.901 19.2443C166.501 16.3376 169.401 13.7316 172.601 11.6267C168.101 16.9389 165.901 23.2535 165.901 30.6705C165.901 35.1809 167.001 39.591 169.101 43.9009C171.301 48.2108 174.001 51.4182 177.201 53.6233C180.401 55.7281 186.001 58.2339 193.901 61.1405C201.901 63.947 207.301 66.3525 210.201 68.2569C213.101 70.1613 215.301 72.4666 216.901 75.0726C218.501 77.6786 219.301 80.7857 219.301 84.4942C219.301 90.508 217.001 95.72 212.401 100.03C209.601 102.636 206.001 104.44 201.601 105.442C201.301 105.442 200.901 105.442 200.601 105.442H195.501C182.501 105.442 171.901 99.9297 163.901 90.8088ZM240.401 97.6244C240.301 100.23 239.401 102.435 237.701 104.44C236.001 102.536 235.101 100.23 235.001 97.6244V10.424C235.001 8.11866 235.901 6.11405 237.701 4.41013C239.501 6.11405 240.401 8.11866 240.401 10.424V97.6244ZM279.701 4.71084C282.701 4.71084 285.601 5.01153 288.401 5.61291C292.201 6.9159 295.501 8.92052 297.901 11.2258C302.101 15.4355 304.101 20.447 304.101 26.3606C304.101 30.2696 303.101 33.6774 301.201 36.5841C299.201 39.4908 295.201 42.197 289.001 44.803C278.301 48.5115 271.001 51.318 267.101 53.1221C263.201 55.0265 259.401 58.1336 255.701 62.5438C252.601 66.2523 250.101 70.9631 249.401 76.4758V4.81105H279.701V4.71084ZM279.701 105.442H274.601C274.301 105.442 273.901 105.442 273.601 105.442C269.201 104.44 265.601 102.636 262.801 100.03C258.201 95.72 255.901 90.6083 255.901 84.4942C255.901 80.7857 256.701 77.6786 258.301 75.0726C259.901 72.4666 262.101 70.2615 265.001 68.2569C267.901 66.2523 273.301 63.947 281.301 61.1405C289.201 58.2339 294.801 55.7281 298.001 53.6233C301.201 51.5184 303.901 48.2108 306.101 43.9009C308.301 39.591 309.301 35.1809 309.301 30.6705C309.301 23.2535 307.101 16.9389 302.601 11.6267C305.801 13.7316 308.701 16.3376 311.301 19.2443C319.301 28.265 323.301 40.1924 323.301 55.0265C323.301 69.8606 319.301 81.788 311.301 90.8088C303.401 99.9297 292.901 105.442 279.701 105.442Z" fill="white"/>
<path d="M182.797 206.674C184.197 206.674 185.297 206.975 186.097 207.677C186.897 208.278 187.197 209.18 187.197 210.182C187.197 210.984 186.997 211.686 186.497 212.287C186.097 212.788 185.597 213.189 184.997 213.289C186.097 213.49 186.897 213.891 187.497 214.693C188.097 215.394 188.397 216.296 188.397 217.399C188.397 218.602 187.997 219.504 187.197 220.205C186.397 220.907 185.197 221.308 183.697 221.308H178.797V221.107H178.997C179.297 221.107 179.697 221.007 179.897 220.707C180.097 220.406 180.297 220.105 180.297 219.804V208.178C180.297 207.777 180.197 207.476 179.897 207.276C179.597 207.075 179.297 206.875 178.997 206.875H178.797V206.674H182.797Z" fill="white"/>
<path d="M207.198 206.674V206.875H206.898C206.098 206.875 205.398 207.276 204.898 208.078L200.898 214.793V219.804C200.898 220.205 200.998 220.506 201.298 220.707C201.498 221.007 201.798 221.107 202.198 221.107H202.398V221.308H197.998V221.107H198.298C198.598 221.107 198.898 221.007 199.198 220.707C199.498 220.406 199.598 220.105 199.598 219.804V214.793L195.698 208.078C195.198 207.276 194.498 206.875 193.698 206.875H193.398V206.674H198.398V206.875H198.098C197.798 206.875 197.598 206.975 197.398 207.276C197.198 207.576 197.198 207.877 197.398 208.178L200.398 214.091L203.598 208.178C203.698 207.877 203.698 207.576 203.598 207.276C203.398 206.975 203.198 206.875 202.898 206.875H202.698V206.674H207.198Z" fill="white"/>
<path d="M226.095 221.408H221.695V221.207H221.995C222.295 221.207 222.695 221.107 222.895 220.806C223.095 220.505 223.295 220.205 223.295 219.904V208.277C223.295 207.876 223.195 207.576 222.895 207.375C222.595 207.075 222.295 206.974 221.995 206.974H221.695V206.774H226.095V206.974H225.795C225.395 206.974 225.095 207.075 224.895 207.375C224.695 207.676 224.495 207.977 224.495 208.277V219.904C224.495 220.305 224.595 220.606 224.895 220.806C225.195 221.107 225.495 221.207 225.795 221.207H226.095V221.408Z" fill="white"/>
<path d="M241.199 206.674C241.599 206.674 242.099 206.674 242.599 206.574C243.099 206.473 243.399 206.373 243.599 206.273V208.879H243.399V208.478C243.399 208.177 243.299 207.877 243.099 207.576C242.899 207.376 242.599 207.175 242.299 207.175H238.499V219.704C238.499 220.105 238.599 220.405 238.899 220.606C239.199 220.907 239.499 221.007 239.799 221.007H240.099V221.207H235.699V221.007H235.999C236.299 221.007 236.599 220.907 236.899 220.606C237.199 220.305 237.299 220.005 237.299 219.704V207.175H233.499C233.199 207.175 232.899 207.275 232.699 207.576C232.499 207.877 232.399 208.077 232.399 208.478V208.879H232.199V206.273C232.399 206.373 232.699 206.473 233.199 206.574C233.699 206.674 234.199 206.674 234.599 206.674H241.199Z" fill="white"/>
<path d="M260.898 219.806C261.298 220.708 261.898 221.109 262.698 221.109H262.898V221.309H258.398V221.109H258.598C258.898 221.109 259.098 221.009 259.298 220.808C259.498 220.507 259.498 220.207 259.398 219.806L258.098 216.198H252.598L251.198 219.806C251.098 220.207 251.098 220.507 251.298 220.808C251.498 221.009 251.698 221.109 251.998 221.109H252.198V221.309H248.098V221.109H248.298C249.098 221.109 249.698 220.708 250.098 219.806L254.698 208.58C255.198 207.478 255.398 206.776 255.398 206.375H255.598L260.898 219.806ZM257.698 215.596L255.298 208.881L252.798 215.596H257.698Z" fill="white"/>
<path d="M277.698 218L276.498 221.408H268.098V221.207H268.398C268.698 221.207 269.098 221.107 269.298 220.806C269.498 220.505 269.698 220.205 269.698 219.904V208.277C269.698 207.876 269.598 207.576 269.298 207.375C268.998 207.075 268.698 206.974 268.398 206.974H268.098V206.774H272.498V206.974H272.198C271.898 206.974 271.498 207.075 271.298 207.375C270.998 207.676 270.898 207.977 270.898 208.277V220.806H273.798C274.798 220.806 275.598 220.506 276.198 220.004C276.698 219.603 277.098 218.902 277.398 218H277.698Z" fill="white"/>
<path d="M296.097 206.674V206.875H295.797C294.997 206.875 294.297 207.276 293.797 208.078L289.797 214.793V219.804C289.797 220.205 289.897 220.506 290.197 220.707C290.397 221.007 290.697 221.107 291.097 221.107H291.297V221.308H286.897V221.107H287.197C287.497 221.107 287.797 221.007 288.097 220.707C288.397 220.406 288.497 220.105 288.497 219.804V214.793L284.597 208.078C284.097 207.276 283.397 206.875 282.597 206.875H282.297V206.674H287.297V206.875H286.997C286.697 206.875 286.497 206.975 286.297 207.276C286.097 207.576 286.097 207.877 286.297 208.178L289.297 214.091L292.497 208.178C292.597 207.877 292.597 207.576 292.497 207.276C292.297 206.975 292.097 206.875 291.797 206.875H291.597V206.674H296.097Z" fill="white"/>
</svg>