<svg width="24" height="24" viewBox="0 0 24 24" fill="none" xmlns="http://www.w3.org/2000/svg">
<path d="M21.0337 21.8332C21.5512 22.3478 22.3498 21.5535 21.8324 21.0501L17.6139 16.8441C19.094 15.2162 19.9121 13.0989 19.9088 10.9042C19.9088 5.99348 15.8928 2 10.9544 2C6.01597 2 2 5.99348 2 10.9042C2 15.815 6.01597 19.8085 10.9544 19.8085C13.1817 19.8085 15.2403 18.9919 16.8152 17.6383L21.0337 21.8332ZM3.1238 10.9042C3.1238 6.60873 6.6448 3.11862 10.9533 3.11862C15.273 3.11862 18.7827 6.60873 18.7827 10.9042C18.7827 15.1998 15.273 18.6899 10.9533 18.6899C6.6448 18.6899 3.1238 15.1998 3.1238 10.9042Z" fill="#0B0B0B"/>
</svg>
