<svg width="362" height="171" viewBox="0 0 362 171" fill="none" xmlns="http://www.w3.org/2000/svg">
<path d="M36.9159 56.9399C36.9159 54.6305 36.0344 52.7542 34.2714 51.3108C32.5819 49.8675 30.4149 48.5685 27.7704 47.4138C25.1994 46.187 22.3713 44.9601 19.2861 43.7333C16.2743 42.4343 13.4462 40.8827 10.8017 39.0785C8.23068 37.2022 6.06367 34.8928 4.30069 32.1505C2.61116 29.4081 1.7664 25.908 1.7664 21.6501C1.7664 17.9696 2.39079 14.7943 3.63957 12.1241C4.88835 9.38173 6.65134 7.10846 8.92853 5.30429C11.2792 3.50011 14.0338 2.16501 17.1925 1.29901C20.3512 0.433003 23.8772 0 27.7704 0C32.2514 0 36.4752 0.39692 40.4419 1.19076C44.4086 1.91243 47.6775 2.99494 50.2485 4.43828L45.5105 16.8871C43.8944 15.8768 41.4703 14.9747 38.2382 14.1808C35.006 13.3148 31.5168 12.8818 27.7704 12.8818C24.2445 12.8818 21.5265 13.5674 19.6166 14.9386C17.7802 16.3098 16.862 18.15 16.862 20.4594C16.862 22.6244 17.7067 24.4286 19.3963 25.8719C21.1592 27.3153 23.3262 28.6504 25.8973 29.8772C28.5417 31.104 31.3699 32.367 34.3816 33.666C37.4669 34.965 40.295 36.5526 42.866 38.429C45.5105 40.2332 47.6775 42.5064 49.367 45.2488C51.13 47.919 52.0115 51.2747 52.0115 55.3161C52.0115 59.3575 51.3136 62.8576 49.9179 65.8164C48.5957 68.7031 46.6858 71.1207 44.1882 73.0692C41.7641 75.0177 38.7891 76.4611 35.2631 77.3992C31.8106 78.3374 27.9908 78.8065 23.8037 78.8065C18.2944 78.8065 13.4462 78.3013 9.25908 77.291C5.07199 76.2806 1.98677 75.2703 0.00340978 74.26L4.85162 61.5946C5.65965 62.0276 6.68806 62.4967 7.93684 63.0019C9.25908 63.5071 10.7282 63.9762 12.3443 64.4092C13.9604 64.8422 15.6499 65.203 17.4129 65.4917C19.2493 65.7803 21.1225 65.9247 23.0324 65.9247C27.5133 65.9247 30.9291 65.203 33.2798 63.7597C35.7039 62.2441 36.9159 59.9709 36.9159 56.9399Z" fill="#FCFCFC"/>
<path d="M60.9667 1.51551H106.694V14.7221H76.0623V32.367H103.94V45.5735H76.0623V64.0844H107.245V77.291H60.9667V1.51551Z" fill="#FCFCFC"/>
<path d="M117.433 2.27327C119.123 1.9846 120.922 1.73201 122.832 1.51551C124.816 1.22684 126.762 1.01034 128.672 0.866007C130.655 0.721675 132.565 0.613423 134.402 0.541253C136.238 0.469087 137.928 0.433004 139.47 0.433004C143.07 0.433004 146.596 0.757756 150.048 1.40726C153.574 2.05676 156.696 3.17536 159.414 4.76303C162.206 6.35071 164.409 8.55181 166.025 11.3663C167.715 14.1087 168.56 17.5727 168.56 21.7584C168.56 27.9648 167.09 33.0165 164.152 36.9135C161.214 40.8105 157.284 43.5168 152.362 45.0323L157.761 48.3881L175.391 77.291H157.982L140.462 47.6303L132.529 46.223V77.291H117.433V2.27327ZM140.572 13.6396C139.03 13.6396 137.487 13.6757 135.944 13.7478C134.475 13.82 133.337 13.9643 132.529 14.1808V36.1557H138.919C143.107 36.1557 146.449 35.2176 148.946 33.3412C151.444 31.4649 152.693 28.3617 152.693 24.0317C152.693 20.7841 151.664 18.2583 149.608 16.4541C147.551 14.5778 144.539 13.6396 140.572 13.6396Z" fill="#FCFCFC"/>
<path d="M206.173 37.7795H234.932V71.5537C231.846 74.0796 228.137 75.9198 223.803 77.0745C219.542 78.2292 215.318 78.8065 211.131 78.8065C206.21 78.8065 201.618 78.0487 197.358 76.5332C193.171 75.0177 189.535 72.6723 186.449 69.4969C183.364 66.2494 180.94 62.1359 179.177 57.1564C177.414 52.1768 176.533 46.2591 176.533 39.4033C176.533 32.2587 177.561 26.1967 179.618 21.2171C181.748 16.1654 184.503 12.088 187.882 8.98481C191.334 5.80946 195.191 3.53619 199.452 2.16502C203.712 0.721673 208.046 0 212.454 0C216.861 0 220.717 0.324752 224.023 0.974257C227.402 1.62376 230.083 2.30935 232.067 3.03102L228.981 15.4798C227.145 14.7582 225.088 14.2169 222.811 13.8561C220.534 13.4231 217.632 13.2066 214.106 13.2066C210.948 13.2066 208.046 13.6757 205.402 14.6138C202.757 15.552 200.443 17.1036 198.46 19.2686C196.55 21.3615 195.044 24.0677 193.942 27.3874C192.914 30.7071 192.4 34.7485 192.4 39.5115C192.4 44.058 192.914 47.9911 193.942 51.3108C194.971 54.5583 196.403 57.2646 198.239 59.4296C200.076 61.5225 202.206 63.0741 204.63 64.0844C207.128 65.0947 209.772 65.5999 212.564 65.5999C214.474 65.5999 216.347 65.3834 218.183 64.9504C220.02 64.4452 221.562 63.7236 222.811 62.7854V48.4963L206.173 46.7643V37.7795Z" fill="#FCFCFC"/>
<path d="M246.542 1.51551H261.638V77.291H246.542V1.51551Z" fill="#FCFCFC"/>
<path d="M272.894 39.4033C272.894 26.774 275.722 17.0675 281.379 10.2838C287.035 3.42794 295.115 0 305.62 0C311.129 0 315.941 0.938173 320.054 2.81452C324.168 4.69086 327.584 7.36105 330.301 10.8251C333.019 14.2891 335.04 18.4387 336.362 23.2739C337.684 28.1091 338.345 33.4855 338.345 39.4033C338.345 52.0325 335.48 61.7751 329.751 68.6309C324.094 75.4146 316.051 78.8065 305.62 78.8065C300.037 78.8065 295.189 77.8683 291.075 75.992C286.961 74.1156 283.546 71.4454 280.828 67.9814C278.183 64.5174 276.2 60.3678 274.878 55.5326C273.555 50.6974 272.894 45.321 272.894 39.4033ZM288.761 39.4033C288.761 43.2281 289.092 46.7643 289.753 50.0118C290.414 53.1872 291.406 55.9295 292.728 58.2389C294.124 60.5482 295.887 62.3524 298.017 63.6514C300.147 64.9504 302.681 65.5999 305.62 65.5999C310.982 65.5999 315.132 63.5431 318.071 59.4296C321.009 55.3161 322.478 48.6406 322.478 39.4033C322.478 35.7227 322.148 32.2948 321.487 29.1194C320.899 25.9441 319.944 23.1656 318.622 20.7841C317.299 18.4026 315.573 16.5624 313.443 15.2633C311.313 13.8922 308.705 13.2066 305.62 13.2066C300.257 13.2066 296.107 15.3355 293.169 19.5934C290.23 23.7791 288.761 30.3824 288.761 39.4033Z" fill="#FCFCFC"/>
<path d="M0 94.0338C1.54261 93.8173 3.26888 93.6368 5.17878 93.4925C7.16214 93.3482 9.18223 93.2399 11.239 93.1678C13.2959 93.0956 15.2792 93.0595 17.1891 93.0595C19.1725 92.9873 20.9355 92.9513 22.4781 92.9513C29.3096 92.9513 35.1495 93.8894 39.9978 95.7658C44.846 97.6421 48.776 100.276 51.7877 103.668C54.7995 107.06 57.0032 111.101 58.3989 115.792C59.7946 120.483 60.4925 125.643 60.4925 131.272C60.4925 136.396 59.8313 141.339 58.5091 146.102C57.1869 150.865 54.9831 155.087 51.8979 158.768C48.8127 162.448 44.7358 165.407 39.6672 167.644C34.6721 169.881 28.4649 171 21.0457 171C19.8704 171 18.291 170.964 16.3076 170.892C14.3977 170.82 12.3776 170.711 10.2474 170.567C8.19054 170.495 6.20719 170.387 4.29729 170.242C2.38739 170.17 0.954951 170.062 0 169.917V94.0338ZM23.6902 106.158C22.0741 106.158 20.4213 106.194 18.7317 106.266C17.1157 106.338 15.9036 106.447 15.0956 106.591V157.36C15.3894 157.433 15.8669 157.505 16.528 157.577C17.2626 157.577 18.0339 157.613 18.8419 157.685C19.65 157.685 20.4213 157.721 21.1558 157.793C21.8904 157.793 22.4414 157.793 22.8087 157.793C27.0692 157.793 30.5952 157.072 33.3866 155.628C36.2514 154.113 38.4919 152.128 40.1079 149.675C41.7975 147.221 42.9728 144.406 43.6339 141.231C44.295 137.984 44.6256 134.664 44.6256 131.272C44.6256 128.313 44.3317 125.354 43.7441 122.395C43.1564 119.364 42.0546 116.658 40.4385 114.277C38.8959 111.895 36.7656 109.947 34.0477 108.431C31.3297 106.916 27.8772 106.158 23.6902 106.158Z" fill="#FCFCFC"/>
<path d="M105.134 153.03H81.4435L75.6035 169.809H60.508L88.275 93.4925H99.4038L127.171 169.809H111.304L105.134 153.03ZM85.2999 141.123H101.828L96.0983 124.236L93.7843 112.328H93.2334L90.9195 124.344L85.2999 141.123Z" fill="#FCFCFC"/>
<path d="M181.544 169.809H132.732V94.0338H147.827V156.603H181.544V169.809Z" fill="#FCFCFC"/>
<path d="M237.042 169.809H188.23V94.0338H203.325V156.603H237.042V169.809Z" fill="#FCFCFC"/>
<path d="M245.27 94.0338H260.366V169.809H245.27V94.0338Z" fill="#FCFCFC"/>
<path d="M293.219 130.298L287.158 118.39H286.607L288.37 130.298V169.809H274.046V93.4925H285.065L314.264 133.87L320.104 145.453H320.655L318.892 133.87V94.0338H333.216V170.35H322.198L293.219 130.298Z" fill="#FCFCFC"/>
<path d="M346.904 94.0338H362V169.809H346.904V94.0338Z" fill="#FCFCFC"/>
</svg>
